<svg width="85" height="74" viewBox="0 0 85 74" fill="none" xmlns="http://www.w3.org/2000/svg">
<path d="M82.8042 27.2967C81.1219 25.6256 78.6959 24.6667 76.1459 24.6667H74.1413C72.3669 10.7269 58.8024 0 42.5001 0C26.1978 0 12.6332 10.7269 10.8588 24.6667H8.85423C6.30423 24.6667 3.87819 25.6256 2.1959 27.2967C0.513608 28.9679 -0.258476 31.191 0.074441 33.3956L4.04111 59.2832C5.32673 67.673 13.6284 73.9969 23.3503 73.9969H61.6428C71.3647 73.9969 79.6663 67.6699 80.9484 59.2832L84.9186 33.3925C85.2551 31.191 84.4794 28.9648 82.7971 27.2937L82.8042 27.2967ZM42.5001 3.08333C56.858 3.08333 68.8288 12.4412 70.5855 24.6667H14.4146C16.1678 12.4412 28.1421 3.08333 42.5001 3.08333ZM81.4088 32.9855L77.4421 58.8732C76.3938 65.7397 69.6009 70.9136 61.6463 70.9136H23.3538C15.3992 70.9136 8.60632 65.7367 7.55444 58.8732L3.59132 32.9886C3.3859 31.6628 3.84986 30.3307 4.85923 29.3256C5.86861 28.3204 7.32423 27.7469 8.85423 27.7469H76.1459C77.6759 27.7469 79.1315 28.3235 80.1409 29.3256C81.1503 30.3277 81.6142 31.6627 81.4088 32.9855ZM44.2709 38.5417V60.125C44.2709 60.976 43.4776 61.6667 42.5001 61.6667C41.5226 61.6667 40.7292 60.976 40.7292 60.125V38.5417C40.7292 37.6907 41.5226 37 42.5001 37C43.4776 37 44.2709 37.6907 44.2709 38.5417ZM63.7501 38.5417V60.125C63.7501 60.976 62.9567 61.6667 61.9792 61.6667C61.0017 61.6667 60.2084 60.976 60.2084 60.125V38.5417C60.2084 37.6907 61.0017 37 61.9792 37C62.9567 37 63.7501 37.6907 63.7501 38.5417ZM24.7917 38.5417V60.125C24.7917 60.976 23.9984 61.6667 23.0209 61.6667C22.0434 61.6667 21.2501 60.976 21.2501 60.125V38.5417C21.2501 37.6907 22.0434 37 23.0209 37C23.9984 37 24.7917 37.6907 24.7917 38.5417Z" fill="black"/>
</svg>
