<svg width="75" height="75" viewBox="0 0 75 75" fill="none" xmlns="http://www.w3.org/2000/svg">
<path d="M74.0184 34.3309C74.0184 29.5146 71.5548 25.0127 67.528 22.3455C67.5557 22.0464 67.5742 21.7442 67.5742 21.439C67.5742 15.417 63.643 10.6006 58.3397 9.89449C57.2882 4.5601 52.5615 0.554688 47.0392 0.554688C42.7626 0.554688 39.0195 2.89195 37.0184 6.35468C35.0173 2.88887 31.2741 0.554688 26.9976 0.554688C21.4784 0.554688 16.7547 4.55702 15.7033 9.88524C10.4308 10.5605 6.46565 15.3923 6.46565 21.4359C6.46565 21.7442 6.48415 22.0464 6.5119 22.3424C2.48198 25.0096 0.0214844 29.5115 0.0214844 34.3278C0.0214844 37.214 0.887901 39.9767 2.54365 42.388C0.887901 44.7993 0.0214844 47.5621 0.0214844 50.4482C0.0214844 55.5112 2.70707 60.1765 7.07615 62.7882C8.99398 69.7507 15.247 74.5547 22.5175 74.5547C28.9123 74.5547 34.4469 70.7929 37.0215 65.366C39.5992 70.7929 45.1307 74.5547 51.5255 74.5547C58.7929 74.5547 65.049 69.7507 66.9668 62.7882C71.3359 60.1765 74.0215 55.5112 74.0215 50.4482C74.0215 47.5621 73.1551 44.7993 71.4993 42.388C73.1551 39.9767 74.0215 37.214 74.0215 34.3278L74.0184 34.3309ZM22.5144 71.4743C16.4587 71.4743 11.2726 67.3425 9.90973 61.4284C9.81107 60.9936 9.5274 60.6267 9.13582 60.4139C5.41423 58.422 3.10173 54.6016 3.10173 50.4513C3.10173 47.8858 3.98665 45.4345 5.6609 43.3624C6.11723 42.795 6.11723 41.9902 5.6609 41.4229C3.98665 39.3508 3.10173 36.8995 3.10173 34.334C3.10173 30.2762 5.33715 26.4989 8.9354 24.4793C9.5089 24.1586 9.81415 23.508 9.69698 22.8635C9.61373 22.401 9.54898 21.9292 9.54898 21.4421C9.54898 17.2393 12.3271 12.8947 17.0569 12.8947C17.8617 12.8947 18.5338 12.2749 18.5924 11.4732C18.9316 7.08546 22.6285 3.64432 27.0007 3.64432C31.6781 3.64432 35.4798 7.44622 35.4798 12.1238V26.6901H27.5772C26.8896 24.0322 24.4723 22.0649 21.6048 22.0649C18.2039 22.0649 15.4382 24.8308 15.4382 28.2318C15.4382 31.6329 18.2039 34.3988 21.6048 34.3988C24.4723 34.3988 26.8896 32.4315 27.5772 29.7736H35.4798V48.2743H27.5772C26.8896 45.6164 24.4723 43.6491 21.6048 43.6491C18.2039 43.6491 15.4382 46.415 15.4382 49.8161C15.4382 53.2171 18.2039 55.983 21.6048 55.983C24.4723 55.983 26.8896 54.0158 27.5772 51.3578H35.4798V58.5145C35.4798 65.662 29.6647 71.4805 22.5175 71.4805L22.5144 71.4743ZM24.6851 28.2257C24.6851 29.9247 23.3037 31.3091 21.6017 31.3091C19.8997 31.3091 18.5184 29.9247 18.5184 28.2257C18.5184 26.5267 19.8997 25.1422 21.6017 25.1422C23.3037 25.1422 24.6851 26.5267 24.6851 28.2257ZM24.6851 49.8099C24.6851 51.5089 23.3037 52.8934 21.6017 52.8934C19.8997 52.8934 18.5184 51.5089 18.5184 49.8099C18.5184 48.1109 19.8997 46.7264 21.6017 46.7264C23.3037 46.7264 24.6851 48.1109 24.6851 49.8099ZM68.3759 43.3593C70.0502 45.4314 70.9351 47.8827 70.9351 50.4482C70.9351 54.6016 68.6226 58.4189 64.901 60.4108C64.5094 60.6205 64.2257 60.9905 64.1271 61.4253C62.7642 67.3394 57.5781 71.4712 51.5224 71.4712C44.3752 71.4712 38.5601 65.6558 38.5601 58.5053V43.6399H46.2684C50.5203 43.6399 53.9767 40.1803 53.9767 35.9312V34.1953C56.6346 33.5076 58.6017 31.0933 58.6017 28.2226C58.6017 24.8215 55.836 22.0557 52.4351 22.0557C49.0342 22.0557 46.2684 24.8215 46.2684 28.2226C46.2684 31.0902 48.2356 33.5076 50.8934 34.1953V35.9312C50.8934 38.4813 48.8183 40.5564 46.2684 40.5564H38.5601V12.1177C38.5601 7.44006 42.3618 3.63815 47.0392 3.63815C51.4114 3.63815 55.1052 7.07621 55.4475 11.4671C55.5091 12.2688 56.2584 12.8885 57.0601 12.8885C61.7097 12.8885 64.4878 17.2362 64.4878 21.4359C64.4878 21.9231 64.4231 22.3948 64.3398 22.8574C64.2227 23.5018 64.531 24.1524 65.1014 24.4731C68.6997 26.4928 70.9351 30.27 70.9351 34.3278C70.9351 36.8933 70.0502 39.3446 68.3759 41.4167C67.9196 41.9841 67.9196 42.7889 68.3759 43.3562V43.3593ZM52.4351 31.3091C50.7331 31.3091 49.3517 29.9247 49.3517 28.2257C49.3517 26.5267 50.7331 25.1422 52.4351 25.1422C54.1371 25.1422 55.5184 26.5267 55.5184 28.2257C55.5184 29.9247 54.1371 31.3091 52.4351 31.3091Z" fill="black"/>
</svg>
