<svg width="85" height="75" viewBox="0 0 85 75" fill="none" xmlns="http://www.w3.org/2000/svg">
<path d="M85 60.8789V8.74259C85 4.10413 81.0263 0.333496 76.1458 0.333496H8.85417C3.97375 0.333496 0 4.10413 0 8.74259V60.8789H40.7292V70.9699H21.25V74.3335H63.75V70.9699H44.2708V60.8789H85ZM3.54167 8.74259C3.54167 5.96086 5.92521 3.69713 8.85417 3.69713H76.1458C79.0748 3.69713 81.4583 5.96086 81.4583 8.74259V57.5153H3.54167V8.74259ZM21.7671 29.4155C21.0765 30.0714 21.0765 31.1377 21.7671 31.7936L35.0483 44.4072L32.5444 46.7853L19.2631 34.1717C17.1913 32.204 17.1913 29.0051 19.2631 27.0374L32.5444 14.4238L35.0483 16.8019L21.7671 29.4155ZM65.7333 27.0374C67.8052 29.0051 67.8052 32.204 65.7333 34.1717L52.4521 46.7853L49.9481 44.4072L63.2294 31.7936C63.92 31.1377 63.92 30.0714 63.2294 29.4155L49.9481 16.8019L52.4521 14.4238L65.7333 27.0374Z" fill="black"/>
</svg>
