<?xml version="1.0" standalone="no"?>
<!DOCTYPE svg PUBLIC "-//W3C//DTD SVG 20010904//EN"
 "http://www.w3.org/TR/2001/REC-SVG-20010904/DTD/svg10.dtd">
<svg version="1.0" xmlns="http://www.w3.org/2000/svg"
 width="100.000000pt" height="100.000000pt" viewBox="0 0 100.000000 100.000000"
 preserveAspectRatio="xMidYMid meet">

<g transform="translate(0.000000,100.000000) scale(0.100000,-0.100000)"
fill="#000000" stroke="none">
<path d="M383 986 c-181 -44 -334 -202 -372 -384 -65 -310 179 -605 497 -601
270 2 494 234 491 507 -3 314 -310 552 -616 478z m23 -201 c26 -20 169 -20
204 0 30 17 66 19 76 4 6 -11 21 -95 31 -181 7 -65 -18 -113 -79 -151 -45 -28
-47 -31 -33 -51 11 -14 15 -48 15 -113 l0 -93 -115 0 -115 0 0 29 c0 25 -4 30
-37 36 -47 8 -59 18 -84 67 -12 24 -26 38 -39 38 -23 0 -36 36 -20 55 7 9 29
15 50 15 30 0 43 -6 59 -26 12 -15 21 -33 21 -40 0 -12 37 -30 45 -22 1 1 10
20 18 41 16 37 16 37 -12 51 -43 23 -89 81 -97 123 -5 25 -2 53 9 84 10 26 17
63 17 82 0 19 3 42 6 51 8 20 54 21 80 1z"/>
<path d="M345 758 c-2 -7 -6 -33 -9 -58 -3 -25 -8 -64 -12 -88 -4 -26 -1 -54
7 -74 13 -32 90 -88 121 -88 25 0 23 -12 -6 -39 -14 -13 -26 -35 -28 -50 -3
-22 -8 -26 -40 -29 -33 -3 -40 1 -57 30 -11 18 -25 39 -31 46 -15 17 -60 15
-60 -3 0 -8 9 -15 21 -15 13 0 25 -11 34 -34 21 -50 41 -66 86 -66 36 0 40 -3
46 -30 l6 -30 88 0 89 0 0 69 c0 56 -4 75 -25 105 -14 20 -25 39 -25 41 0 2
14 6 31 10 16 4 47 23 69 44 48 45 60 97 36 147 -9 19 -16 55 -16 79 0 41 -2
45 -24 45 -13 0 -28 -6 -34 -13 -14 -17 -177 -16 -209 1 -28 16 -53 15 -58 0z"/>
</g>
</svg>
