<?xml version="1.0" standalone="no"?>
<!DOCTYPE svg PUBLIC "-//W3C//DTD SVG 20010904//EN"
 "http://www.w3.org/TR/2001/REC-SVG-20010904/DTD/svg10.dtd">
<svg version="1.0" xmlns="http://www.w3.org/2000/svg"
 width="100.000000pt" height="100.000000pt" viewBox="0 0 100.000000 100.000000"
 preserveAspectRatio="xMidYMid meet">

<g transform="translate(0.000000,100.000000) scale(0.100000,-0.100000)"
fill="#000000" stroke="none">
<path d="M383 986 c-181 -44 -334 -202 -372 -384 -65 -310 179 -605 497 -601
270 2 494 234 491 507 -3 314 -310 552 -616 478z m251 -220 c105 -51 161 -144
161 -266 0 -85 -21 -142 -74 -203 -82 -92 -237 -121 -353 -64 -160 79 -215
278 -118 430 80 126 246 170 384 103z"/>
<path d="M469 737 c-15 -12 -35 -34 -44 -49 l-17 -28 91 0 92 0 -18 31 c-17
29 -58 69 -72 69 -3 0 -18 -10 -32 -23z"/>
<path d="M354 718 c-61 -42 -67 -58 -21 -58 30 0 39 6 58 38 13 20 25 40 27
45 8 16 -18 6 -64 -25z"/>
<path d="M582 743 c2 -5 14 -25 27 -45 19 -32 28 -38 58 -38 46 0 40 16 -21
58 -46 31 -72 41 -64 25z"/>
<path d="M254 595 c-26 -64 -21 -75 36 -75 46 0 50 2 50 24 0 13 3 38 6 55 6
31 6 31 -35 31 -38 0 -43 -3 -57 -35z"/>
<path d="M381 586 c-6 -25 -11 -50 -11 -55 0 -7 45 -11 130 -11 85 0 130 4
130 11 0 5 -5 30 -11 55 l-11 44 -108 0 -108 0 -11 -44z"/>
<path d="M654 599 c3 -17 6 -42 6 -55 0 -22 4 -24 50 -24 57 0 62 11 36 75
-14 32 -19 35 -57 35 -41 0 -41 0 -35 -31z"/>
<path d="M240 460 c0 -11 7 -36 14 -55 14 -32 19 -35 57 -35 41 0 41 0 35 31
-3 17 -6 42 -6 55 0 22 -4 24 -50 24 -44 0 -50 -3 -50 -20z"/>
<path d="M370 469 c0 -5 5 -30 11 -55 l11 -44 108 0 108 0 11 44 c6 25 11 50
11 55 0 7 -45 11 -130 11 -85 0 -130 -4 -130 -11z"/>
<path d="M660 456 c0 -13 -3 -38 -6 -55 -6 -31 -6 -31 35 -31 38 0 43 3 57 35
26 64 21 75 -36 75 -46 0 -50 -2 -50 -24z"/>
<path d="M300 331 c0 -18 106 -88 116 -78 3 2 -8 23 -22 46 -23 34 -33 41 -61
41 -18 0 -33 -4 -33 -9z"/>
<path d="M428 308 c12 -18 32 -41 46 -52 24 -18 25 -18 53 2 15 11 36 34 46
51 l18 31 -91 0 -92 0 20 -32z"/>
<path d="M606 299 c-14 -23 -25 -44 -22 -46 10 -10 116 60 116 78 0 5 -15 9
-33 9 -28 0 -38 -7 -61 -41z"/>
</g>
</svg>
