<svg width="250" height="250" viewBox="0 0 250 250" fill="none" xmlns="http://www.w3.org/2000/svg">
<g clip-path="url(#clip0_108_353)">
<path d="M0 217.765C0 235.569 14.4326 250 32.2354 250H217.764C235.569 250 250 235.567 250 217.765V32.2363C250 14.4307 235.567 0 217.765 0H32.2363C14.4307 0 0 14.4326 0 32.2354V217.765Z" fill="#563D7C"/>
<path d="M103.671 110.584V75.1807H134.834C137.803 75.1807 140.664 75.4277 143.42 75.9229C146.176 76.417 148.614 77.2998 150.734 78.5723C152.854 79.8447 154.55 81.6113 155.822 83.8721C157.094 86.1338 157.73 89.0313 157.73 92.5635C157.73 98.9238 155.822 103.518 152.006 106.344C148.19 109.171 143.314 110.584 137.378 110.584H103.671ZM70.3867 49.3164V200.684H143.738C150.522 200.684 157.13 199.836 163.561 198.14C169.991 196.443 175.715 193.829 180.732 190.296C185.749 186.763 189.742 182.204 192.71 176.622C195.679 171.039 197.162 164.432 197.162 156.8C197.162 147.33 194.865 139.239 190.272 132.526C185.679 125.813 178.718 121.113 169.39 118.428C176.174 115.178 181.298 111.008 184.761 105.92C188.223 100.832 189.954 94.4727 189.954 86.8398C189.954 79.7734 188.788 73.8379 186.456 69.0322C184.124 64.2275 180.838 60.376 176.598 57.4785C172.358 54.5811 167.271 52.4961 161.334 51.2246C155.398 49.9521 148.826 49.3164 141.618 49.3164H70.3867ZM103.671 174.819V133.268H139.922C147.13 133.268 152.925 134.928 157.307 138.25C161.688 141.571 163.879 147.118 163.879 154.892C163.879 158.85 163.207 162.1 161.864 164.644C160.521 167.188 158.72 169.202 156.458 170.686C154.197 172.17 151.582 173.229 148.614 173.866C145.646 174.501 142.537 174.819 139.286 174.819H103.671Z" fill="white"/>
</g>
<defs>
<clipPath id="clip0_108_353">
<rect width="250" height="250" fill="white"/>
</clipPath>
</defs>
</svg>
