<svg width="600" height="249" viewBox="0 0 600 249" fill="none" xmlns="http://www.w3.org/2000/svg">
<path d="M3.90469 193.965V98.4195H87.2766V92.8307H3.90469V5.66617H92.5477V0.0791016H0V199.552H93.3281V193.965H3.90469ZM168.5 55.9531L133.942 121.048L100.163 55.9548H95.0859L131.598 125.24L91.5703 199.55H96.2566L133.939 129.427L171.818 199.55H176.699L136.478 125.236L173.184 55.9514H168.499L168.5 55.9531ZM188.415 248.722V159.324H188.805C191.149 172.361 195.77 182.837 202.669 190.754C209.568 198.668 218.353 202.627 229.027 202.627C235.925 202.627 242.044 200.625 247.38 196.621C252.717 192.617 257.175 187.169 260.755 180.277C264.334 173.385 267.068 165.377 268.956 156.25C270.843 147.125 271.787 137.532 271.787 127.477C271.787 116.673 270.81 106.708 268.857 97.5828C266.905 88.456 264.074 80.5399 260.365 73.8361C256.655 67.1306 252.164 61.9141 246.892 58.1916C241.621 54.4658 235.665 52.6029 229.027 52.6029C223.95 52.6029 219.232 53.6743 214.871 55.8156C210.511 57.9585 206.639 60.9835 203.255 64.8954C199.85 68.8374 196.887 73.5008 194.468 78.7239C191.995 84.0326 190.107 89.8528 188.805 96.186H188.415V55.9531H184.511V248.722H188.415ZM229.027 197.317C216.792 197.317 206.964 191.31 199.545 179.298C192.125 167.285 188.415 150.009 188.415 127.473C188.415 118.16 189.327 109.314 191.149 100.933C192.971 92.5524 195.607 85.1946 199.056 78.8631C202.506 72.5298 206.769 67.5011 211.845 63.777C216.921 60.0512 222.649 58.1883 229.027 58.1883C235.535 58.1883 241.23 60.0512 246.111 63.777C250.992 67.5011 255.028 72.5768 258.217 79.0023C261.405 85.4277 263.814 92.7855 265.441 101.072C267.068 109.361 267.881 118.16 267.881 127.473C267.881 135.855 267.134 144.191 265.636 152.478C264.139 160.766 261.829 168.216 258.704 174.829C255.581 181.439 251.579 186.84 246.697 191.032C241.815 195.222 235.925 197.317 229.027 197.317ZM293.264 199.552V118.254C293.264 110.432 294.045 102.794 295.608 95.3459C297.169 87.8959 299.577 81.3296 302.831 75.6504C306.086 69.9694 310.218 65.4991 315.23 62.2394C320.241 58.9797 326.196 57.6299 333.095 58.1883V52.6012C327.107 52.4167 321.868 53.3457 317.378 55.3947C312.886 57.4438 309.014 60.2373 305.76 63.777C302.505 67.315 299.903 71.4584 297.95 76.2087C296 80.9515 294.552 86.0826 293.654 91.434H293.264V55.9531H289.359V199.553L293.264 199.552ZM337.976 128.87H421.932C422.194 118.999 421.511 109.501 419.883 100.375C418.256 91.2478 415.652 83.1456 412.073 76.0695C408.493 68.9918 403.873 63.3109 398.21 59.0267C392.548 54.7425 385.812 52.6012 378.002 52.6012C372.404 52.6012 366.938 54.278 361.601 57.6316C356.264 60.9835 351.578 65.8713 347.543 72.2968C343.508 78.7222 340.254 86.5914 337.781 95.906C335.309 105.217 334.071 115.833 334.071 127.753C334.071 138.369 334.917 148.287 336.609 157.506C338.302 166.725 340.904 174.735 344.419 181.533C347.934 188.331 352.458 193.592 357.989 197.317C363.52 201.042 370.192 202.811 378.002 202.625C389.456 202.625 399.089 198.014 406.898 188.797C414.709 179.576 419.33 166.586 420.762 149.823H416.857C415.165 165.655 410.836 177.529 403.873 185.443C396.908 193.359 388.155 197.317 377.611 197.317C370.452 197.317 364.399 195.548 359.453 192.01C354.507 188.471 350.472 183.627 347.347 177.482C344.224 171.335 341.913 164.118 340.417 155.829C338.919 147.543 338.106 138.555 337.976 128.87ZM418.028 123.283H337.977C338.366 113.226 339.668 104.193 341.88 96.1843C344.094 88.1743 346.99 81.3296 350.57 75.6504C354.149 69.9694 358.315 65.6399 363.066 62.6586C367.816 59.6789 372.926 58.1883 378.393 58.1883C384.901 58.1883 390.627 59.912 395.575 63.3578C400.52 66.8036 404.653 71.507 407.973 77.4663C411.292 83.4256 413.797 90.3642 415.489 98.2786C417.182 106.195 418.028 114.53 418.028 123.283ZM502.962 98.4195H506.866C506.866 82.4011 503.612 70.7608 497.105 63.497C490.595 56.2331 481.744 52.6012 470.55 52.6012C464.302 52.6012 459.03 53.7196 454.734 55.9548C450.439 58.1883 446.925 61.0757 444.191 64.6137C441.458 68.1517 439.506 72.0637 438.334 76.3479C437.162 80.6321 436.576 84.7302 436.576 88.6404C436.576 96.4627 437.552 102.702 439.506 107.358C441.458 112.015 444.517 115.647 448.682 118.254C451.546 120.115 454.799 121.792 458.445 123.285C462.089 124.774 466.32 126.356 471.136 128.032C475.431 129.524 479.661 131.013 483.827 132.502C487.992 133.993 491.67 135.995 494.858 138.508C498.048 141.023 500.651 144.236 502.669 148.148C504.686 152.058 505.695 157.181 505.695 163.512C505.695 169.66 504.687 174.874 502.669 179.157C500.668 183.419 498.035 186.997 494.957 189.635C491.832 192.335 488.35 194.29 484.511 195.501C480.67 196.711 476.929 197.317 473.284 197.317C461.439 197.317 452.359 193.545 446.046 186.003C439.733 178.459 436.577 166.586 436.577 150.382H432.671C432.671 168.449 436.089 181.672 442.922 190.054C449.756 198.435 459.877 202.625 473.284 202.625C477.579 202.625 481.907 201.926 486.268 200.529C490.628 199.133 494.534 196.852 497.982 193.685C501.402 190.562 504.274 186.357 506.378 181.394C508.526 176.363 509.6 170.218 509.6 162.954C509.6 156.062 508.656 150.475 506.769 146.191C504.881 141.909 502.409 138.369 499.349 135.575C496.29 132.782 492.841 130.594 489.001 129.011C485.139 127.419 481.266 125.881 477.383 124.4C472.604 122.606 467.821 120.837 463.032 119.093C458.933 117.602 455.126 115.833 451.611 113.784C448.227 111.735 445.526 108.802 443.508 104.984C441.49 101.166 440.482 95.7182 440.482 88.6404C440.482 87.3376 440.742 85.0085 441.263 81.6566C441.783 78.303 443.02 74.9042 444.973 71.4584C446.925 68.0142 449.918 64.9407 453.954 62.2394C457.989 59.5398 463.521 58.1883 470.55 58.1883C475.366 58.1883 479.759 58.9344 483.729 60.4234C487.699 61.9141 491.116 64.2884 493.979 67.5481C496.843 70.8078 499.056 74.9511 500.618 79.9798C502.18 85.0102 502.962 91.1556 502.962 98.4195ZM593.361 98.4195H597.266C597.266 82.4011 594.013 70.7608 587.504 63.497C580.996 56.2331 572.145 52.6012 560.95 52.6012C554.702 52.6012 549.43 53.7196 545.135 55.9548C540.839 58.1883 537.325 61.0757 534.592 64.6137C531.858 68.1517 529.905 72.0637 528.734 76.3479C527.562 80.6321 526.977 84.7302 526.977 88.6404C526.977 96.4627 527.953 102.702 529.907 107.358C531.858 112.015 534.918 115.647 539.082 118.254C541.946 120.115 545.2 121.792 548.844 123.285C552.489 124.774 556.719 126.356 561.536 128.032C565.832 129.524 570.062 131.013 574.227 132.502C578.393 133.993 582.069 135.995 585.259 138.508C588.448 141.023 591.052 144.236 593.068 148.148C595.086 152.058 596.095 157.181 596.095 163.512C596.095 169.66 595.086 174.874 593.068 179.157C591.068 183.419 588.435 186.996 585.357 189.635C582.232 192.335 578.75 194.29 574.91 195.501C571.071 196.711 567.328 197.317 563.684 197.317C551.838 197.317 542.76 193.545 536.447 186.003C530.133 178.459 526.977 166.586 526.977 150.382H523.072C523.072 168.449 526.488 181.672 533.323 190.054C540.156 198.435 550.276 202.625 563.684 202.625C567.98 202.625 572.307 201.926 576.668 200.529C581.027 199.133 584.933 196.852 588.383 193.685C591.803 190.562 594.675 186.357 596.779 181.394C598.927 176.363 600 170.218 600 162.954C600 156.062 599.057 150.475 597.169 146.191C595.282 141.909 592.809 138.369 589.75 135.575C586.691 132.782 583.241 130.594 579.402 129.011C575.54 127.419 571.667 125.881 567.784 124.4C563.005 122.606 558.221 120.837 553.433 119.093C549.333 117.602 545.525 115.833 542.011 113.784C538.627 111.735 535.925 108.802 533.909 104.984C531.891 101.166 530.882 95.7182 530.882 88.6404C530.882 87.3376 531.142 85.0085 531.663 81.6566C532.184 78.303 533.421 74.9042 535.372 71.4584C537.325 68.0142 540.319 64.9407 544.354 62.2394C548.389 59.5398 553.921 58.1883 560.951 58.1883C565.767 58.1883 570.159 58.9344 574.13 60.4234C578.1 61.9141 581.516 64.2884 584.38 67.5481C587.244 70.8078 589.457 74.9511 591.019 79.9798C592.581 85.0102 593.362 91.1556 593.362 98.4195H593.361Z" fill="#222222"/>
</svg>
