<svg width="800" height="250" viewBox="0 0 800 250" fill="none" xmlns="http://www.w3.org/2000/svg">
<g clip-path="url(#clip0_108_277)">
<path d="M193.379 0.208496V192.849L215.199 192.944V101.251H267.916V76.9815H215.199V24.4775H283.822V0.208496H193.379ZM323.214 39.3033C331.126 39.3033 337.456 32.032 337.456 23.1554C337.456 14.2788 331.043 7.00758 323.214 7.00758C315.303 7.00758 308.973 14.2788 308.973 23.1554C308.973 32.032 315.386 39.3033 323.214 39.3033ZM312.138 63.5722V192.849H333.958V63.5722H312.138Z" fill="black"/>
<path fill-rule="evenodd" clip-rule="evenodd" d="M414.99 59.7949C385.925 59.7949 365.688 87.6523 365.688 120.703C365.688 153.755 385.925 181.612 414.99 181.612C428.315 181.612 439.225 175.757 447.22 166.314V183.406C447.22 204.842 432.396 222.69 412.991 222.69C405.996 222.69 399.083 219.668 393.587 215.324L382.594 236.855C391.338 243.276 401.748 246.959 412.908 246.959C443.889 246.959 468.956 218.535 468.956 183.406V63.5722H447.22V75.0929C439.225 65.6497 428.315 59.7949 414.99 59.7949ZM387.59 120.703C387.59 100.212 401.415 84.0639 417.405 84.0639C433.395 84.0639 447.22 100.212 447.22 120.703C447.22 141.195 433.395 157.343 417.405 157.343C401.415 157.343 387.59 141.195 387.59 120.703Z" fill="black"/>
<path d="M547.823 84.0639C534.915 84.0639 524.421 96.5289 524.421 111.166V192.849H502.602V63.5722H524.421V75.3762C530.834 66.0274 540.245 59.7949 552.57 59.7949C567.894 59.7949 579.637 68.3882 586.466 81.6087C594.044 68.8604 606.37 59.7949 621.277 59.7949C646.178 59.7949 661.669 82.553 661.752 110.694V192.849H639.932V111.071C639.932 96.4345 629.439 83.9695 616.53 83.9695C603.622 83.9695 593.128 96.4345 593.128 111.071V192.849H571.309V111.071C571.225 96.4345 560.732 84.0639 547.823 84.0639Z" fill="black"/>
<path fill-rule="evenodd" clip-rule="evenodd" d="M778.18 78.2091C768.436 66.7829 755.111 59.7949 739.704 59.7949C707.224 59.7949 684.072 91.0519 684.072 128.258C684.072 165.464 707.141 196.721 739.704 196.721C755.111 196.721 768.436 189.639 778.18 178.307V192.849H800V63.5722H778.18V78.2091ZM705.975 128.258C705.975 103.611 722.631 84.0639 742.119 84.0639C761.524 84.0639 778.263 103.517 778.263 128.258C778.263 152.905 761.607 172.452 742.119 172.452C722.631 172.358 705.975 152.905 705.975 128.258Z" fill="black"/>
<path d="M73.3711 125.047C73.3711 102.1 89.7775 83.4028 110.098 83.4028C130.335 83.4028 146.825 102.006 146.825 125.047C146.825 147.994 130.419 166.692 110.098 166.692C89.8608 166.692 73.3711 147.994 73.3711 125.047Z" fill="#1ABCFE"/>
<path d="M0 208.242C0 185.295 16.4064 166.597 36.727 166.597H73.4541V208.242C73.4541 231.189 57.0477 249.886 36.727 249.886C16.4064 249.886 0 231.283 0 208.242Z" fill="#0ACF83"/>
<path d="M73.3711 0.208445V83.4028H110.098C130.335 83.4028 146.825 64.7998 146.825 41.7584C146.825 18.8115 130.419 0.114014 110.098 0.114014H73.3711V0.208445Z" fill="#FF7262"/>
<path d="M0 41.8529C0 64.7998 16.4064 83.4973 36.727 83.4973H73.4541V0.208496H36.727C16.4064 0.208496 0 18.8116 0 41.8529Z" fill="#F24E1E"/>
<path d="M0 125.047C0 147.994 16.4064 166.692 36.727 166.692H73.4541V83.4028H36.727C16.4064 83.4028 0 102.1 0 125.047Z" fill="#A259FF"/>
</g>
<defs>
<clipPath id="clip0_108_277">
<rect width="800" height="250" fill="white"/>
</clipPath>
</defs>
</svg>
