<svg width="250" height="250" viewBox="0 0 250 250" fill="none" xmlns="http://www.w3.org/2000/svg">
<g clip-path="url(#clip0_108_306)">
<path d="M0 0H250V250H0V0Z" fill="#F0DB4F"/>
<path d="M229.54 190.376C227.71 178.969 220.272 169.392 198.242 160.456C190.59 156.939 182.059 154.42 179.516 148.622C178.613 145.247 178.494 143.346 179.064 141.302C180.704 134.672 188.618 132.605 194.891 134.506C198.931 135.86 202.757 138.974 205.063 143.94C215.852 136.954 215.828 137.001 223.361 132.201C220.604 127.923 219.131 125.951 217.325 124.121C210.837 116.873 201.997 113.142 187.857 113.427C185.41 113.736 182.938 114.068 180.49 114.378C173.433 116.16 166.707 119.867 162.762 124.834C150.928 138.261 154.302 161.763 168.703 171.436C182.891 182.082 203.732 184.506 206.393 194.463C208.984 206.654 197.434 210.599 185.956 209.197C177.496 207.438 172.791 203.137 167.705 195.319C158.342 200.737 158.342 200.737 148.718 206.274C150.999 211.265 153.399 213.522 157.225 217.847C175.334 236.217 220.652 235.314 228.78 207.51C229.112 206.559 231.299 200.19 229.54 190.376ZM135.909 114.9H112.525C112.525 135.1 112.43 155.157 112.43 175.357C112.43 188.213 113.095 200 111.004 203.612C107.582 210.717 98.7178 209.838 94.6778 208.46C90.5666 206.44 88.4754 203.564 86.0514 199.501C85.386 198.337 84.887 197.433 84.7204 197.362C78.3756 201.236 72.054 205.133 65.709 209.007C68.8699 215.494 73.5274 221.126 79.4923 224.786C88.4038 230.133 100.381 231.773 112.905 228.897C121.056 226.521 128.09 221.602 131.774 214.116C137.097 204.301 135.956 192.419 135.909 179.278C136.027 157.842 135.909 136.407 135.909 114.9Z" fill="#323330"/>
</g>
<defs>
<clipPath id="clip0_108_306">
<rect width="250" height="250" fill="white"/>
</clipPath>
</defs>
</svg>
