<svg width="200" height="250" viewBox="0 0 200 250" fill="none" xmlns="http://www.w3.org/2000/svg">
<path d="M100.763 19.0442L104.571 27.9838C105.427 29.6338 106.355 31.0937 107.443 32.4537C110.643 36.4035 113.627 40.6233 116.371 45.0831C122.818 55.6627 127.17 67.4223 130.274 80.1417C132.138 87.9014 133.146 95.8811 133.226 103.931C133.538 128.02 126.93 148.699 113.619 165.888C111.459 168.608 109.115 171.118 106.619 173.358C105.299 173.358 104.675 172.098 104.131 170.928C103.139 168.768 102.483 166.398 102.187 163.938C101.715 161.019 101.411 158.109 101.563 155.109V153.749C101.459 153.439 100.299 19.7342 100.763 19.0442Z" fill="#599636"/>
<path d="M100.763 18.7543C100.611 18.3643 100.451 18.6543 100.291 18.8543C100.371 20.8042 99.8195 22.5441 98.9715 24.204C98.0356 25.854 96.7956 27.1239 95.5477 28.4839C88.6439 35.9536 83.2042 44.9932 78.8523 55.0928C73.0526 68.6823 70.0687 83.2517 69.2287 98.6011C68.8447 104.131 70.6287 123.65 72.0286 129.28C75.8365 144.239 82.6682 156.769 91.5318 167.638C93.7077 170.258 96.0356 172.688 98.4355 175.028C99.1395 175.028 99.2115 174.248 99.3715 173.668C99.6835 172.428 99.9155 171.168 100.075 169.888L101.635 155.329L100.763 18.7543Z" fill="#6CAC48"/>
<path d="M104.571 179.258C104.723 177.028 105.579 175.188 106.515 173.338C105.579 172.858 104.883 171.888 104.339 170.818C103.868 169.798 103.484 168.728 103.18 167.608C102.092 163.538 101.86 159.249 101.548 155.089V152.569C101.164 152.959 101.076 156.259 101.076 156.749C100.852 161.159 100.38 165.528 99.6757 169.858C99.4437 171.608 99.2917 173.358 98.4277 174.908C98.4277 175.098 98.4277 175.298 98.5077 175.588C99.9077 180.738 100.292 185.978 100.524 191.327V193.277C100.524 195.607 100.444 195.117 101.996 195.897C102.62 196.187 103.316 196.287 103.94 196.867C104.411 196.867 104.483 196.387 104.483 195.987L104.251 192.777V183.838C104.179 182.278 104.411 180.728 104.571 179.258Z" fill="#C2BFBF"/>
<path d="M38.3446 222.641V226.96C38.3446 227.134 38.3446 227.308 38.3691 227.471C38.4099 227.982 38.6632 228.298 39.0307 228.441C39.3739 228.553 39.7251 228.635 40.0763 228.696C40.2806 228.727 40.3459 228.839 40.3704 229.115C40.3949 230.085 40.3296 230.197 39.578 230.136C37.8299 230.024 36.0737 229.993 34.3256 230.136H34.1622C33.6149 230.167 33.5741 230.105 33.5741 229.421C33.5741 229.309 33.5986 229.166 33.5986 229.054C33.5986 228.849 33.713 228.737 33.8682 228.737C34.2358 228.686 34.5706 228.564 34.9137 228.482C35.3875 228.339 35.6652 227.971 35.7061 227.369C35.7715 226.715 35.7715 226.031 35.7715 225.378L35.7959 217.761C35.8123 217.311 35.6163 216.893 35.2976 216.678C34.8893 216.392 34.4481 216.168 33.9988 215.994C33.8599 215.943 33.7292 215.912 33.6149 215.82C33.28 215.616 33.2718 215.249 33.5904 215.024C33.7048 214.942 33.8436 214.881 33.9743 214.85C35.353 214.595 36.7076 214.168 38.0178 213.574C38.2874 213.462 38.3609 213.492 38.3854 213.829C38.4099 214.034 38.3854 214.289 38.3609 214.483C38.3201 214.85 38.3201 215.218 38.3201 215.565C38.3201 215.708 38.3446 215.851 38.459 215.933C38.5733 216.014 38.6877 215.933 38.7938 215.851C39.2676 215.392 39.7496 214.973 40.2724 214.605C41.0239 214.095 41.8163 213.635 42.6821 213.492C43.7277 213.319 44.6345 213.666 45.435 214.513C45.7617 214.881 46.0558 215.3 46.3009 215.759C46.5296 216.178 46.5541 216.188 46.8481 215.902C47.714 215.106 48.6208 214.401 49.601 213.88C50.6221 213.339 51.6676 213.258 52.7133 213.707C53.7834 214.187 54.5104 215.126 54.9433 216.402C55.3109 217.424 55.4661 218.485 55.4661 219.588V227.206C55.4661 227.716 55.6295 228.033 56.0379 228.288C56.4709 228.492 56.9446 228.604 57.402 228.717C57.6961 228.798 57.6961 228.798 57.6961 229.176C57.6553 230.116 57.5817 230.167 56.8548 230.116C55.032 229.983 53.2046 229.983 51.3818 230.116C51.0142 230.146 51.0142 230.146 50.9978 229.687V229.544C50.9733 228.778 50.9733 228.778 51.5696 228.604L52.1578 228.4C52.5662 228.278 52.8603 227.818 52.8603 227.287L52.9257 225.153L52.8849 219.588C52.8685 219.088 52.7868 218.598 52.6316 218.138C52.0598 216.402 50.81 215.78 49.6091 215.953C48.7025 216.065 47.9019 216.525 47.1504 217.179C46.987 217.322 46.8808 217.495 46.8972 217.771C47.1014 219.588 46.9625 221.406 46.987 223.223V227.175C46.987 227.89 47.2158 228.227 47.763 228.4L48.8086 228.686C48.972 228.717 49.0619 228.798 49.0619 229.023V229.227C49.0373 230.024 48.9965 230.054 48.3594 230.054C46.5377 229.942 44.7243 229.973 42.9272 230.054C42.3146 230.085 42.2656 230.003 42.29 229.227C42.3146 228.768 42.3554 228.747 42.6985 228.655L43.45 228.482C44.1117 228.308 44.3567 228.002 44.4058 227.114L44.471 225.204L44.4302 219.496C44.3894 218.782 44.2669 218.108 43.9564 217.454C43.499 216.402 42.7883 215.861 41.8163 215.81C40.836 215.729 39.9783 216.178 39.1532 216.75C38.5814 217.168 38.3365 217.658 38.3773 218.486V222.631L38.3446 222.641ZM81.1728 222.815V226.818C81.1728 227.103 81.1892 227.389 81.2137 227.665C81.23 228.053 81.4588 228.38 81.7611 228.461C82.1531 228.604 82.5533 228.686 82.9618 228.717C83.1906 228.747 83.2314 228.86 83.2559 229.084V229.289C83.2314 230.279 83.1415 230.401 82.3655 230.34C80.6337 230.197 78.9101 230.228 77.1865 230.34L76.5249 230.371C76.3861 230.371 76.3615 230.289 76.3207 230.167C76.2554 229.773 76.2554 229.366 76.3207 228.972C76.3452 228.798 76.4351 228.768 76.5739 228.717C76.9089 228.666 77.1866 228.574 77.5051 228.512C78.077 228.339 78.2811 228.053 78.2975 227.318L78.3629 224.928V217.934C78.3629 217.423 78.1995 217.107 77.8401 216.882C77.4316 216.596 76.9987 216.402 76.5413 216.198C76.4024 216.147 76.2717 216.086 76.1573 215.994C75.8632 215.739 75.8224 215.371 76.1165 215.085C76.2472 214.952 76.4024 214.871 76.5739 214.861C78.0279 214.575 79.4412 214.177 80.8053 213.492C80.9687 213.411 81.034 213.462 81.0993 213.635C81.1646 213.809 81.1892 214.003 81.1647 214.207L81.0993 215.545C81.0993 215.718 81.034 215.963 81.1402 216.025C81.2791 216.137 81.369 215.882 81.4833 215.82C82.1531 215.116 82.8948 214.525 83.6888 214.064C84.3914 213.646 85.1184 213.38 85.9352 213.441C87.4628 213.554 88.5492 214.524 89.2517 216.198C89.6193 217.076 89.7745 218.046 89.8399 219.037L89.9052 221.12L89.9297 227.4C89.9542 227.879 90.093 228.196 90.477 228.37C90.8769 228.533 91.2866 228.656 91.7023 228.737C92.0698 228.788 92.0862 228.88 92.1107 229.309V229.452C92.0699 230.422 92.0209 230.442 91.2448 230.391C89.5497 230.279 87.8509 230.279 86.1558 230.391C85.927 230.422 85.6983 230.391 85.4941 230.422C85.3552 230.422 85.2653 230.391 85.2408 230.218C85.2 229.85 85.151 229.483 85.2164 229.084C85.2408 228.911 85.3062 228.829 85.4696 228.798L86.5152 228.594C86.8828 228.482 87.087 228.176 87.1278 227.767L87.1687 226.971L87.1442 221.028C87.1442 220.344 87.1196 219.66 87.0053 218.986C86.7357 217.526 85.8454 216.494 84.6446 216.341C83.599 216.198 82.6514 216.545 81.7774 217.25C81.3444 217.587 81.1647 218.077 81.1647 218.669V222.958C81.1647 222.876 81.1647 222.876 81.1892 222.876L81.1728 222.815Z" fill="#47474A"/>
<path d="M147.74 214.779C147.487 212.706 146.874 210.858 145.804 209.234C144.873 207.805 143.672 206.692 142.3 205.998C140.87 205.262 139.343 205.028 137.799 204.977C137.161 204.946 128.478 205.119 127.841 204.977C127.678 204.946 127.571 205.007 127.473 205.181C127.359 205.385 127.245 205.61 127.179 205.834C126.91 206.6 126.91 206.549 127.563 206.661C128.111 206.774 128.633 206.835 129.156 207.029C129.63 207.233 129.973 207.57 130.087 208.224C130.128 208.54 130.177 218.537 130.177 223.193L130.087 226.521C130.063 226.777 130.047 227.032 129.973 227.257C129.883 227.594 129.72 227.879 129.45 228.022C129.148 228.196 128.829 228.308 128.495 228.339C127.882 228.421 127.792 228.451 127.588 229.309L127.522 229.625C127.482 229.993 127.498 230.054 127.792 230.054L134.588 230.136L137.251 230.085L139.089 229.799C141.18 229.319 143.043 228.237 144.636 226.501C145.543 225.5 146.286 224.285 146.817 222.917C147.454 221.324 147.724 219.588 147.797 217.832C147.92 216.821 147.879 215.8 147.74 214.779ZM144.448 218.812C144.358 220.63 144.064 222.396 143.313 223.979C142.357 226.052 140.993 227.502 139.106 228.012C138.289 228.216 137.472 228.329 136.614 228.186C136.002 228.104 135.413 228.012 134.842 227.757C133.82 227.297 133.453 226.511 133.437 225.265L133.412 208.132C133.412 207.111 133.78 206.886 134.368 206.855C135.258 206.774 136.165 206.804 137.047 206.906C137.995 207.019 138.918 207.305 139.8 207.733C140.454 208.07 141.058 208.54 141.597 209.122C142.822 210.429 143.639 212.073 144.088 214.003C144.456 215.565 144.521 217.158 144.456 218.751L144.448 218.812ZM166.634 221.6C166.634 221.426 166.634 221.283 166.61 221.12C166.405 219.558 165.744 218.363 164.723 217.454C164.061 216.862 163.318 216.464 162.542 216.178C162.403 216.127 162.288 216.065 162.158 216.035C162.182 215.892 162.247 215.861 162.321 215.831C162.778 215.545 163.211 215.238 163.595 214.81C164.298 214.074 164.763 213.166 165 212.053C165.139 211.46 165.139 210.858 165.09 210.235C165.017 208.755 164.404 207.396 163.432 206.539C162.386 205.569 161.161 205.171 159.887 205.15C157.428 205.099 154.953 205.15 152.502 205.15C151.8 205.15 151.097 205.201 150.362 205.068C150.223 205.038 150.027 204.987 149.929 205.181C149.766 205.548 149.561 205.916 149.496 206.345C149.472 206.549 149.521 206.661 149.7 206.682L151.269 206.968C151.881 207.08 152.314 207.509 152.363 208.193C152.404 208.663 152.429 209.143 152.429 209.612L152.388 214.922L152.363 225.429C152.363 226.052 152.298 226.654 152.2 227.277C152.151 227.685 151.922 228.012 151.612 228.124C151.154 228.298 150.721 228.461 150.248 228.461C149.986 228.431 149.741 228.635 149.66 228.941C149.57 229.197 149.496 229.482 149.455 229.738C149.415 230.075 149.48 230.197 149.749 230.156C149.954 230.126 157.452 230.361 158.866 230.187C159.707 230.075 160.532 229.932 161.365 229.615C162.795 229.043 164.118 228.227 165.164 226.828C166.03 225.694 166.528 224.326 166.569 222.733C166.634 222.366 166.634 221.998 166.634 221.6ZM155.606 209.949L155.672 207.672C155.672 207.243 155.81 207.049 156.145 206.957C156.693 206.814 157.24 206.876 157.779 206.906C158.326 206.957 158.849 207.049 159.397 207.243C160.393 207.611 161.169 208.326 161.627 209.52C161.831 210.061 161.945 210.654 161.945 211.256C161.97 212.053 161.921 212.818 161.676 213.584C161.292 214.636 160.679 215.32 159.789 215.514C158.898 215.718 156.382 215.626 155.99 215.626C155.647 215.626 155.623 215.575 155.623 215.146V212.471C155.565 211.644 155.565 210.807 155.598 209.97L155.606 209.949ZM162.991 225.235C162.607 226.511 161.896 227.399 160.9 227.879C160.352 228.135 159.805 228.298 159.233 228.247C158.531 228.216 157.828 228.247 157.117 228.073C156.162 227.818 155.729 226.685 155.663 225.858C155.549 224.408 155.623 222.927 155.598 221.855V218.108C155.598 217.648 155.639 217.515 156.031 217.515L158.171 217.546L159.625 217.75C160.646 218.036 161.578 218.516 162.305 219.506C162.893 220.303 163.211 221.263 163.285 222.314C163.35 223.305 163.309 224.275 163.015 225.214L162.991 225.235Z" fill="#C2BFBF"/>
<path d="M105.239 216.678L105.827 216.79C106.464 216.821 107.216 216.535 107.444 215.422C107.567 214.892 107.567 214.329 107.444 213.799C107.306 213.799 107.24 213.942 107.175 214.003C106.832 214.34 106.448 214.544 106.039 214.595C105.223 214.707 104.406 214.646 103.605 214.278L102.494 213.798C101.718 213.482 100.901 213.349 100.085 213.4C98.9246 213.513 97.8381 213.993 96.8089 214.677C95.7143 215.412 94.9464 216.525 94.5788 218.026C94.3746 218.904 94.35 219.813 94.4399 220.721C94.6687 222.794 95.5345 224.244 97.0784 225.01C97.1683 225.041 97.2418 225.092 97.3317 225.122C97.5359 225.265 97.5604 225.408 97.3725 225.602L96.8007 226.082L95.4365 227.134C95.0934 227.389 95.0526 227.593 95.167 228.043C95.3058 228.574 95.5509 229.043 95.894 229.411C96.2044 229.748 96.5556 230.013 96.9395 230.207C97.1928 230.35 97.1928 230.411 96.9641 230.667L95.6653 231.831C95.2323 232.25 94.7994 232.658 94.4399 233.199C94.1872 233.535 94.0049 233.944 93.9094 234.389C93.8139 234.835 93.8081 235.303 93.8926 235.752C94.0642 236.742 94.4726 237.631 95.0771 238.304C95.667 238.991 96.3864 239.479 97.1682 239.724C98.4426 240.183 99.7577 240.204 101.057 239.897C102.919 239.469 104.553 238.437 105.827 236.691C106.717 235.527 107.232 234.159 107.281 232.535C107.387 230.585 106.342 228.839 104.822 228.39L103.597 228.104L99.8476 227.685C99.4392 227.655 99.0308 227.573 98.6876 227.318C98.2548 226.981 98.1404 226.327 98.418 225.898C98.6223 225.582 98.8756 225.388 99.1941 225.357L99.9211 225.275C101.358 225.093 102.707 224.325 103.76 223.09C104.323 222.438 104.725 221.598 104.92 220.67C105.19 219.445 105.19 218.179 104.961 216.933C104.896 216.617 104.92 216.596 105.231 216.647L105.239 216.678ZM99.6679 230.83C99.8068 230.861 99.9375 230.83 100.076 230.83C101.032 230.881 102.012 230.973 102.944 231.29C103.246 231.402 103.548 231.545 103.834 231.719C104.741 232.341 105.084 233.424 104.969 234.588C104.83 235.864 104.267 236.773 103.376 237.375C102.788 237.794 102.127 237.968 101.441 238.059C101.187 238.09 100.967 238.059 100.713 238.059C99.9211 238.09 99.1451 237.978 98.3935 237.579C97.8708 237.324 97.4378 236.957 97.0539 236.446C96.2616 235.456 95.8858 233.638 97.0784 232.158C97.8054 231.31 98.6223 230.718 99.6679 230.83ZM102.266 221.967C101.792 223.468 100.738 223.928 99.7005 223.723C98.7448 223.55 98.0424 222.896 97.5849 221.814C96.9967 220.364 96.8334 218.863 97.1765 217.301C97.4297 216.137 97.9932 215.259 98.998 215.054C100.272 214.769 101.49 215.34 102.135 216.933C102.47 217.699 102.609 218.638 102.609 219.976C102.584 220.517 102.494 221.252 102.266 221.967ZM73.6262 220.027C73.422 218.495 72.9646 217.097 72.1231 215.933C70.8734 214.197 69.2805 213.441 67.4833 213.431C65.915 213.4 64.4364 213.972 63.1213 214.993C61.8225 215.963 60.875 217.515 60.4583 219.343C60.0744 220.987 60.0907 222.672 60.393 224.346C61.1853 228.839 63.9627 230.769 67.2791 230.483C68.2594 230.401 69.1906 230.003 70.0728 229.462C71.388 228.696 72.3437 227.471 73.0054 225.857C73.5281 224.52 73.7569 223.101 73.7324 221.477L73.6262 220.027ZM70.3995 226.337C70.0647 227.644 69.1498 228.584 68.0552 228.727C67.0586 228.9 66.1192 228.584 65.286 227.849C64.6815 227.287 64.1914 226.562 63.8564 225.715C62.9253 223.325 62.7619 220.834 63.2438 218.271C63.399 217.474 63.7257 216.76 64.1996 216.198C65.0409 215.228 66.0212 215.003 67.1076 215.289C68.1532 215.575 68.9455 216.28 69.599 217.362C70.2525 218.444 70.5547 219.69 70.7345 220.997C70.8243 221.651 70.8243 222.335 70.8489 222.753C70.8489 224.122 70.759 225.245 70.4159 226.337H70.3995ZM123.292 220.262C123.128 218.618 122.63 217.107 121.699 215.861C120.473 214.187 118.881 213.472 117.108 213.441C115.58 213.41 114.175 213.952 112.877 214.891C111.423 215.973 110.418 217.505 110.034 219.578C109.576 221.845 109.764 224.234 110.581 226.337C111.333 228.328 112.607 229.605 114.29 230.177C116.152 230.8 117.925 230.514 119.657 229.462C121.16 228.553 122.222 227.134 122.842 225.204C123.21 224.071 123.341 222.845 123.365 221.426C123.382 221.171 123.333 220.711 123.292 220.262ZM120.155 225.97C119.787 227.501 119.019 228.502 117.721 228.727C116.765 228.9 115.858 228.614 115.041 227.93C114.339 227.338 113.841 226.542 113.473 225.602C113.064 224.612 112.836 223.56 112.746 222.478C112.607 221.14 112.607 219.833 112.86 218.495C112.909 218.23 112.975 217.975 113.064 217.73C113.702 215.739 115.107 214.83 116.773 215.289C117.884 215.606 118.725 216.372 119.363 217.536C119.975 218.669 120.269 219.925 120.408 221.273C120.473 221.814 120.498 222.386 120.473 222.866C120.473 223.979 120.408 225 120.139 225.99L120.155 225.97Z" fill="#47474A"/>
</svg>
