<svg width="401" height="250" viewBox="0 0 401 250" fill="none" xmlns="http://www.w3.org/2000/svg">
<path d="M163.286 165.174C157 196.55 148.712 219.376 138.422 233.558C130.404 244.519 121.621 250 112.057 250C109.505 250 106.364 249.293 102.63 247.89V240.32C104.45 240.573 106.59 240.699 109.048 240.699C113.508 240.699 117.105 239.568 119.844 237.302C123.122 234.542 124.761 231.443 124.761 228.006C124.761 225.66 123.479 220.84 120.933 213.552L103.994 165.154H119.157L131.311 201.354C134.044 209.571 135.183 215.309 134.726 218.579C141.381 202.238 146.023 184.433 148.663 165.185H163.281M96.3494 227.764H80.9171C80.3727 203.792 78.8712 181.258 76.4074 160.138H76.2809L52.7806 227.764H41.0222L17.6649 160.138H17.5274C15.795 180.416 14.706 202.949 14.2496 227.764H0.175781C1.08323 197.595 3.36562 169.323 7.00093 142.928H26.129L48.3973 205.256H48.5348L70.9407 142.928H89.2437C93.2475 173.845 95.6179 202.127 96.3384 227.764" fill="#00758F"/>
<path d="M368.755 227.754H324.906V142.918H339.661V217.307H368.755V227.744M258.485 210.772C254.746 205.24 252.881 196.368 252.881 184.13C252.881 162.767 259.943 152.078 274.055 152.078C281.436 152.078 286.853 154.637 290.312 159.744C294.041 165.275 295.911 174.077 295.911 186.144C295.911 207.678 288.849 218.453 274.737 218.453C267.362 218.453 261.939 215.899 258.485 210.782M313.4 229.798L296.45 222.107C297.957 220.966 299.392 219.735 300.685 218.321C307.889 210.534 311.486 199.013 311.486 183.756C311.486 155.686 299.508 141.646 275.557 141.646C263.809 141.646 254.652 145.204 248.096 152.335C240.892 160.128 237.301 171.614 237.301 186.774C237.301 201.687 240.49 212.629 246.859 219.578C252.667 225.861 261.45 229.005 273.214 229.005C277.602 229.005 281.628 228.511 285.286 227.517L307.356 239.336L313.373 229.798M230.877 204.236C230.877 211.433 228.006 217.337 222.275 221.96C216.545 226.558 208.84 228.869 199.199 228.869C190.179 228.869 181.434 226.21 172.965 220.946L176.93 213.658C184.217 217.009 190.811 218.68 196.729 218.68C202.284 218.68 206.629 217.544 209.774 215.299C212.909 213.033 214.796 209.878 214.796 205.876C214.796 200.84 210.973 196.535 203.972 192.921C197.484 189.599 191.02 186.238 184.58 182.838C177.579 178.134 174.065 173.093 174.065 164.786C174.065 157.912 176.683 152.356 181.913 148.132C187.154 143.892 193.919 141.773 202.201 141.773C210.764 141.773 218.547 143.877 225.559 148.071L221.995 155.353C216 153.012 210.082 151.836 204.247 151.836C199.517 151.836 195.866 152.886 193.325 154.985C190.767 157.069 189.189 159.754 189.189 163.024C189.189 168.051 193.094 172.411 200.293 176.095C206.838 179.361 220.086 186.31 220.086 186.31C227.291 191.004 230.882 196.005 230.882 204.246M379.259 227.754H381.707V219.124H384.902V217.358H375.937V219.124H379.259V227.754ZM397.865 227.754H400.169V217.358H396.704L393.883 224.443L390.809 217.358H387.47V227.754H389.654V219.841H389.775L392.992 227.754H394.653L397.865 219.841V227.754Z" fill="#F29111"/>
<path d="M246.113 0.0503783C242.214 -8.89841e-05 238.815 1.34739 237.06 5.30907C234.052 11.9758 241.515 18.5315 244.084 21.9179C245.975 24.2747 248.428 26.9444 249.759 29.604C250.54 31.3452 250.766 33.1973 251.547 35.0394C253.329 39.5512 254.995 44.5727 257.338 48.7816C258.559 50.9366 259.895 53.1925 261.457 55.1304C262.354 56.2659 263.91 56.7706 264.246 58.6228C262.689 60.6667 262.568 63.7452 261.683 66.314C257.668 77.8962 259.23 92.2491 264.911 100.758C266.693 103.317 270.928 108.959 276.614 106.804C281.63 104.962 280.519 99.1177 281.96 93.9953C282.296 92.7538 282.07 91.9413 282.741 91.1187V91.3306C284.297 94.1972 285.865 96.9577 287.311 99.8394C290.771 104.856 296.782 110.084 301.798 113.567C304.465 115.419 306.582 118.593 309.926 119.724V119.411H309.706C309.035 118.492 308.034 118.078 307.143 117.367C305.136 115.52 302.914 113.264 301.352 111.21C296.677 105.477 292.547 99.1177 288.879 92.557C287.091 89.3725 285.535 85.8903 284.083 82.7159C283.418 81.4895 283.418 79.6374 282.301 79.0267C280.624 81.2775 278.176 83.2306 276.955 85.9861C274.838 90.402 274.618 95.8323 273.832 101.47C273.392 101.576 273.612 101.47 273.392 101.671C269.828 100.854 268.601 97.4725 267.259 94.606C263.916 87.3235 263.355 75.6302 266.258 67.2325C267.028 65.0826 270.383 58.32 269.041 56.2659C268.37 54.3078 266.143 53.1874 264.916 51.6482C263.364 49.5795 262.024 47.3832 260.913 45.0874C258.24 39.3493 256.898 32.9904 254.005 27.2523C252.669 24.5775 250.32 21.8169 248.434 19.3592C246.311 16.5885 243.979 14.6405 242.302 11.3652C241.752 10.2347 240.971 8.38758 241.862 7.16122C242.076 6.33861 242.527 6.03076 243.424 5.82384C244.859 4.69842 248.989 6.12664 250.436 6.74234C254.561 8.27655 258.014 9.71992 261.463 11.8648C263.019 12.8943 264.691 14.8424 266.698 15.3571H269.041C272.605 16.0738 276.62 15.559 279.964 16.4825C285.865 18.2237 291.211 20.7874 296.006 23.553C310.766 32.2132 322.758 44.3111 330.759 58.6127C332.101 60.9695 332.662 63.1244 333.883 65.5772C336.226 70.6138 339.124 75.7362 341.462 80.6517C343.799 85.4714 346.032 90.3919 349.381 94.389C351.042 96.5389 357.73 97.6693 360.738 98.7948C362.965 99.7133 366.419 100.536 368.427 101.661C372.221 103.811 375.994 106.274 379.564 108.636C381.346 109.867 386.911 112.426 387.247 114.48C378.337 114.278 371.43 115.096 365.633 117.357C363.966 117.967 361.294 117.967 361.068 119.915C361.965 120.733 362.069 122.065 362.855 123.196C364.192 125.25 366.524 128.01 368.647 129.454C370.99 131.094 373.327 132.729 375.78 134.162C380.125 136.635 385.025 138.063 389.254 140.521C391.712 141.954 394.16 143.802 396.613 145.341C397.834 146.158 398.609 147.496 400.177 148V147.688C399.39 146.769 399.17 145.437 398.395 144.407C397.284 143.388 396.167 142.464 395.051 141.44C391.787 137.47 387.881 133.981 383.468 131.094C379.899 128.828 372.095 125.749 370.654 121.969L370.429 121.762C372.876 121.556 375.78 120.733 378.123 120.112C381.901 119.189 385.36 119.396 389.26 118.477C391.042 118.063 392.823 117.548 394.616 117.049V116.115C392.598 114.278 391.157 111.81 389.045 110.069C383.369 105.562 377.122 101.157 370.66 97.4574C367.195 95.4084 362.74 94.0811 359.066 92.3349C357.735 91.7192 355.508 91.4164 354.721 90.3869C352.719 88.131 351.598 85.1635 350.157 82.4938C346.863 76.6571 343.815 70.7059 341.022 64.6536C339.014 60.6566 337.788 56.6646 335.34 52.9704C323.857 35.539 311.384 24.9863 292.223 14.6304C288.098 12.4754 283.198 11.5519 277.967 10.4265C275.173 10.3205 272.396 10.1237 269.608 10.0227C267.82 9.29599 266.033 7.34795 264.477 6.4244C260.506 4.11805 252.619 0.131124 246.124 0.0402832L246.113 0.0503783ZM273.601 25.39C271.709 25.39 270.378 25.602 269.036 25.9048V26.1067H269.25C270.147 27.7468 271.709 28.8824 272.814 30.3156C273.711 31.9558 274.491 33.591 275.382 35.2312L275.602 35.0293C277.17 34.0048 277.951 32.3646 277.951 29.9018C277.274 29.1801 277.17 28.4685 276.609 27.7468C275.943 26.7274 274.491 26.2126 273.601 25.39Z" fill="#00758F"/>
</svg>
