<svg width="250" height="250" viewBox="0 0 250 250" fill="none" xmlns="http://www.w3.org/2000/svg">
<path fill-rule="evenodd" clip-rule="evenodd" d="M147.203 0C145.395 0 143.717 0.389186 142.167 0.907767C145.46 3.11148 147.268 6.02837 148.172 9.33345C148.237 9.78783 148.366 10.1118 148.43 10.5652C148.494 10.9544 148.559 11.3426 148.559 11.7318C148.817 17.4361 147.074 18.1483 145.847 21.5196C143.974 25.8628 144.491 30.5291 146.751 34.2885C146.945 34.7419 147.203 35.2605 147.526 35.7139C145.072 19.3159 158.695 16.8524 161.213 11.7318C161.407 7.25913 157.726 4.27804 154.822 2.20372C152.044 0.518581 149.527 0 147.203 0ZM167.735 3.69426C167.475 5.18581 167.67 4.79662 167.605 5.57399C167.541 6.09257 167.541 6.74055 167.476 7.25913C167.347 7.77771 167.218 8.29629 167.024 8.81487C166.894 9.33345 166.701 9.85203 166.508 10.3706C166.249 10.8892 166.056 11.3436 165.798 11.8612C165.603 12.1209 165.475 12.3797 165.281 12.6395L164.893 13.2223C164.57 13.6767 164.248 14.1301 163.925 14.5193C163.537 14.9084 163.216 15.3618 162.763 15.6858V15.751C162.375 16.075 161.989 16.4632 161.536 16.7882C160.18 17.8243 158.631 18.6027 157.21 19.5747C156.758 19.8987 156.307 20.1584 155.919 20.5476C155.467 20.8716 155.08 21.1956 154.693 21.5838C154.24 21.973 153.918 22.3622 153.53 22.8155C153.207 23.2047 152.821 23.6581 152.562 24.1125C152.239 24.5659 151.916 25.0193 151.658 25.4736C151.4 25.9922 151.206 26.4456 150.948 26.9642C150.754 27.4828 150.561 27.9372 150.432 28.4547C150.259 28.9888 150.108 29.5295 149.979 30.0757C149.915 30.3345 149.915 30.6584 149.85 30.9182C149.785 31.177 149.785 31.4368 149.721 31.6956C149.721 32.2142 149.656 32.798 149.656 33.3166C149.656 33.7047 149.656 34.0939 149.721 34.4831C149.721 35.0017 149.786 35.5203 149.915 36.103C149.98 36.6216 150.109 37.1402 150.238 37.6588C150.432 38.1774 150.561 38.6959 150.754 39.2135C150.884 39.5385 151.077 39.8625 151.206 40.1223L136.357 34.3527C133.839 33.6405 131.386 32.9916 128.868 32.4088L124.8 31.4358C120.915 30.6581 116.994 30.0743 113.051 29.6865C112.921 29.6865 112.856 29.6213 112.727 29.6213C108.853 29.2321 105.044 29.0385 101.17 29.0385C98.3296 29.0385 95.4891 29.1679 92.7125 29.3625C88.774 29.6213 84.8354 30.1399 80.8979 30.7878C79.9287 30.9182 78.9596 31.1118 77.9924 31.3064C75.9902 31.6956 74.0539 32.149 72.1815 32.6034L69.2761 33.3807C68.307 33.7699 67.4038 34.2233 66.4995 34.6125L64.3694 35.5855C64.2395 35.6497 64.1106 35.6497 64.0467 35.7139C63.4013 36.0378 62.8198 36.2976 62.2383 36.6216C62.0455 36.6868 61.9156 36.752 61.7867 36.8162C61.0773 37.1402 60.3669 37.5284 59.7854 37.8534C59.3338 38.048 58.8812 38.3068 58.4946 38.5014C58.3007 38.6318 58.042 38.7611 57.9131 38.8253C57.3316 39.1493 56.7511 39.4733 56.2346 39.7983C55.6531 40.1213 55.1365 40.4463 54.6849 40.7703C54.2333 41.0943 53.7807 41.353 53.3941 41.677C53.3291 41.7422 53.2642 41.7422 53.2002 41.8074C52.8126 42.0662 52.361 42.3902 51.9733 42.7142L51.8434 42.8446L50.8763 43.622C50.7464 43.6862 50.6165 43.8166 50.4886 43.8808C50.1659 44.1405 49.8432 44.4645 49.5195 44.7233C49.4555 44.8537 49.3266 44.9179 49.2617 44.9831C48.874 45.3723 48.4874 45.6953 48.0997 46.0845C48.0348 46.0845 48.0348 46.1497 47.9698 46.2149C47.5832 46.5388 47.1955 46.927 46.8078 47.3162C46.7439 47.3814 46.7439 47.4466 46.679 47.4466C46.3403 47.7767 46.0173 48.1224 45.7108 48.4828C45.5809 48.6132 45.3881 48.7426 45.2592 48.872C44.9365 49.2611 44.5488 49.6493 44.1612 50.0385C44.0962 50.1689 43.9673 50.2331 43.9034 50.3625C43.3869 50.8811 42.9343 51.3997 42.4177 51.9183L42.2249 52.1128C41.1918 53.2142 40.0938 54.3166 38.9318 55.2885C37.7871 56.314 36.5794 57.2665 35.316 58.1402C34.0639 59.0218 32.7713 59.8439 31.4424 60.6037C30.1247 61.3295 28.7666 61.9789 27.3749 62.5487C26.0018 63.1342 24.6014 63.653 23.1786 64.1034C20.467 64.6872 17.6904 65.7885 15.3015 65.9831C14.785 65.9831 14.2045 66.1135 13.688 66.1777C13.1065 66.3081 12.5899 66.4375 12.0734 66.5669L10.5247 67.1507C10.0072 67.3443 9.49066 67.6041 8.97411 67.8629C8.52251 68.1868 8.00596 68.4466 7.55436 68.7706C7.10176 69.0946 6.65015 69.4828 6.26249 69.873C5.81089 70.197 5.35929 70.6504 4.97163 71.0395C4.58397 71.4929 4.19731 71.8821 3.8736 72.3355C3.55088 72.8541 3.16422 73.3085 2.90545 73.826C2.58273 74.2804 2.26001 74.799 2.00224 75.3176C1.74247 75.9004 1.48569 76.4189 1.29186 77.0027C1.08806 77.5609 0.894202 78.1227 0.710375 78.6878C0.581489 79.2064 0.452602 79.725 0.387659 80.2426C0.387659 80.3088 0.322716 80.373 0.322716 80.4382C0.19383 81.021 0.19383 81.7993 0.128887 82.1875C0.0649431 82.6419 0 83.0301 0 83.4845C0 83.7433 5.95523e-08 84.0672 0.064943 84.327C0.129886 84.7804 0.194829 85.1696 0.323715 85.5588C0.452602 85.947 0.581489 86.3362 0.775318 86.7253V86.7895C0.969148 87.1787 1.22692 87.5679 1.48469 87.9571C1.74447 88.3453 2.00224 88.7345 2.32396 89.1237C2.64767 89.4476 3.03533 89.8358 3.42299 90.1608C3.80965 90.549 4.19731 90.873 4.64891 91.198C6.19855 92.5591 6.58621 93.0125 8.58745 94.0497C8.91017 94.2443 9.23288 94.3737 9.62054 94.5682C9.68549 94.5682 9.74943 94.6324 9.81437 94.6324C9.81437 94.7628 9.81437 94.827 9.87832 94.9574C9.94326 95.476 10.0721 95.9946 10.202 96.5122C10.3249 97.0458 10.4975 97.5667 10.7176 98.0679C10.9114 98.4571 11.0413 98.8463 11.2341 99.2355C11.2991 99.3649 11.364 99.4943 11.428 99.5595C11.6867 100.078 11.9445 100.531 12.2033 100.985L13.1714 102.346C13.4941 102.735 13.8808 103.189 14.2695 103.578C14.6561 103.967 15.0438 104.29 15.4954 104.68C15.4954 104.68 15.5603 104.744 15.6253 104.744C16.0119 105.068 16.3996 105.393 16.7872 105.652C17.2388 105.976 17.6904 106.236 18.207 106.495C18.6596 106.754 19.1761 107.013 19.6927 107.207C20.0793 107.402 20.5319 107.532 20.9836 107.661C21.0485 107.726 21.1124 107.726 21.2413 107.792C21.5011 107.856 21.8228 107.921 22.0806 107.985C21.8878 111.486 21.8228 114.791 22.3404 115.957C22.9198 117.254 25.7614 113.3 28.6019 108.764C28.2142 113.235 27.9564 118.486 28.6019 120.041C29.3122 121.662 33.1858 116.606 36.5429 111.031C82.3186 100.402 124.091 132.163 128.481 177.016C127.642 170.015 119.054 166.126 115.116 167.098C113.18 171.895 109.886 178.053 104.592 181.877C105.055 177.549 104.837 173.174 103.947 168.914C102.527 174.877 99.7503 180.451 95.9407 185.248C89.8081 185.701 83.6744 182.72 80.4463 178.246C80.1875 178.053 80.1236 177.665 79.9297 177.404C79.7359 176.95 79.5421 176.497 79.4132 176.044C79.2248 175.609 79.0945 175.151 79.0255 174.682C78.9606 174.228 78.9606 173.775 78.9606 173.256V172.283C79.0255 171.83 79.1544 171.376 79.2833 170.923C79.4132 170.469 79.5421 170.015 79.7359 169.562C79.9937 169.107 80.1875 168.654 80.5102 168.201C81.6083 165.089 81.6083 162.561 79.607 161.071C79.2193 160.816 78.8085 160.599 78.3801 160.422C78.1213 160.358 77.7986 160.228 77.5408 160.163C77.347 160.098 77.2181 160.033 77.0243 159.969C76.5717 159.838 76.1201 159.709 75.6685 159.645C75.2278 159.517 74.7714 159.451 74.3127 159.45C73.8601 159.385 73.3435 159.32 72.8919 159.32C72.5692 159.32 72.2465 159.386 71.9228 159.386C71.4072 159.386 70.9556 159.45 70.504 159.579C70.0514 159.645 69.5998 159.71 69.1472 159.839C68.6956 159.97 68.243 160.099 67.7914 160.293C67.3398 160.487 66.9521 160.682 66.5005 160.876C66.1129 161.071 65.7252 161.33 65.2736 161.524C50.2308 171.376 59.205 194.452 69.4699 201.128C65.5963 201.84 61.6578 202.683 60.5608 203.525L60.4309 203.656C63.2084 205.341 66.1129 206.767 69.1472 207.999C73.2796 209.359 77.6697 210.591 79.607 211.109V211.175C84.9561 212.276 90.426 212.668 95.8767 212.341C124.478 210.332 147.914 188.489 152.175 159.71C152.305 160.293 152.434 160.811 152.563 161.395C152.757 162.561 153.014 163.792 153.143 165.025V165.089C153.273 165.673 153.337 166.257 153.402 166.774V167.035C153.467 167.617 153.532 168.201 153.532 168.72C153.596 169.432 153.66 170.145 153.66 170.859V171.896C153.66 172.22 153.725 172.608 153.725 172.932C153.725 173.321 153.66 173.71 153.66 174.1V175.006C153.66 175.461 153.595 175.849 153.595 176.303C153.595 176.562 153.595 176.822 153.531 177.146C153.531 177.599 153.466 178.053 153.466 178.571C153.401 178.766 153.401 178.96 153.401 179.155C153.337 179.674 153.272 180.128 153.207 180.646C153.207 180.84 153.207 181.035 153.143 181.229C153.078 181.877 152.95 182.461 152.885 183.109V183.239C152.756 183.822 152.627 184.47 152.497 185.054V185.248L152.11 186.998C152.11 187.063 152.045 187.193 152.045 187.258C151.915 187.841 151.787 188.424 151.594 189.007V189.202C151.4 189.851 151.206 190.433 151.077 191.017C151.012 191.081 151.012 191.147 151.012 191.147L150.431 193.091C150.173 193.74 149.979 194.322 149.721 194.97C149.463 195.619 149.269 196.267 149.011 196.85C148.752 197.499 148.494 198.082 148.236 198.73H148.172C147.912 199.314 147.655 199.961 147.332 200.545C147.268 200.74 147.203 200.869 147.139 200.999C147.074 201.064 147.074 201.129 147.009 201.193C142.812 209.684 136.615 217.138 128.867 222.972C128.35 223.296 127.834 223.684 127.318 224.074C127.188 224.203 126.994 224.268 126.865 224.398C126.414 224.722 125.961 225.046 125.446 225.37L125.639 225.759H125.704L128.415 225.37H128.48C130.159 225.11 131.837 224.786 133.516 224.462C133.967 224.397 134.485 224.268 134.936 224.138C135.259 224.073 135.517 224.009 135.84 223.944C136.292 223.879 136.744 223.749 137.195 223.685C137.583 223.554 137.971 223.49 138.358 223.361C144.815 221.805 151.077 219.666 157.082 217.138C146.816 231.204 133.063 242.546 116.987 250C124.413 249.481 131.837 248.251 139.004 246.176C165.023 238.463 186.91 220.897 200.015 197.239C197.355 212.246 191.425 226.478 182.648 238.916C188.905 234.773 194.686 229.947 199.886 224.527C214.349 209.36 223.839 190.109 227.067 169.432C229.27 179.69 229.901 190.226 228.94 200.675C275.554 135.404 232.813 67.7345 214.929 49.9101C214.865 49.7797 214.8 49.7155 214.8 49.5861C214.736 49.6503 214.736 49.6503 214.736 49.7155C214.736 49.6503 214.736 49.6503 214.671 49.5851C214.671 50.3635 214.606 51.1409 214.541 51.9193C214.349 53.4098 214.155 54.8361 213.896 56.2625C213.573 57.6878 213.187 59.1142 212.799 60.5395C212.34 61.9431 211.823 63.3272 211.25 64.6882C210.656 66.0314 210.01 67.3504 209.312 68.6422C208.603 69.873 207.827 71.1699 206.988 72.3365C206.158 73.5421 205.274 74.7102 204.34 75.8372C203.372 77.0037 202.34 78.0409 201.307 79.077C200.699 79.6358 200.075 80.1764 199.435 80.698C198.918 81.1514 198.466 81.5405 197.949 81.9939C196.787 82.9017 195.625 83.7443 194.334 84.5216C193.107 85.3 191.816 86.0774 190.525 86.7264C189.169 87.3743 187.813 87.9571 186.458 88.5409C185.101 89.0595 183.681 89.5138 182.261 89.902C180.833 90.2879 179.39 90.6126 177.935 90.875C176.45 91.1338 174.965 91.2632 173.544 91.3926C172.511 91.4578 171.478 91.523 170.445 91.523C168.96 91.523 167.476 91.3926 166.055 91.2622C164.57 91.1338 163.086 90.9392 161.665 90.6152C160.18 90.3544 158.759 89.9662 157.339 89.5128H157.275C158.695 89.3824 160.115 89.253 161.536 88.9943C162.993 88.7387 164.436 88.414 165.862 88.0213C167.282 87.6363 168.682 87.1824 170.059 86.6611C171.478 86.1426 172.834 85.4946 174.125 84.8456C175.482 84.1976 176.709 83.4845 178 82.7071C179.226 81.8645 180.452 81.022 181.615 80.1142C182.772 79.2114 183.871 78.2372 184.907 77.1973C186.005 76.2243 186.974 75.123 187.942 74.0216C188.886 72.8865 189.79 71.7189 190.653 70.521C190.783 70.3274 190.912 70.0676 191.041 69.873C191.686 68.8358 192.332 67.7987 192.913 66.7615C193.624 65.4766 194.27 64.1573 194.851 62.8084C195.434 61.4517 195.951 60.0672 196.399 58.6598C196.852 57.2987 197.175 55.8723 197.497 54.447C197.756 52.9564 198.014 51.5301 198.143 50.1037C198.273 48.6132 198.402 47.1226 198.402 45.6963C198.402 44.6591 198.337 43.622 198.272 42.5848C198.144 41.0943 197.95 39.6689 197.756 38.2416C197.502 36.7796 197.178 35.3306 196.787 33.8993C196.335 32.5382 195.884 31.1128 195.367 29.7517C194.851 28.3905 194.205 27.0294 193.559 25.7324C192.849 24.4365 192.139 23.1405 191.364 21.9088C190.54 20.6942 189.679 19.5053 188.782 18.3439C187.81 17.2258 186.82 16.1237 185.812 15.0378C185.268 14.4818 184.708 13.9416 184.133 13.4179C181.241 11.1628 178.246 9.04308 175.159 7.06554C174.707 6.80574 174.32 6.61215 173.867 6.41756C171.737 5.05641 169.736 4.34224 167.735 3.69426Z" fill="#E0234E"/>
</svg>
