<svg width="400" height="250" viewBox="0 0 400 250" fill="none" xmlns="http://www.w3.org/2000/svg">
<g clip-path="url(#clip0_108_288)">
<path d="M94.3828 65.2344H169.827V71.4439H101.298V118.174H165.741V124.383H101.298V175.689H170.613V181.898H94.3828V65.2344ZM176.586 65.2344H184.602L220.123 116.54L256.43 65.2336L305.813 0.0646973L224.68 121.933L266.489 181.898H258.159L220.123 127.324L181.929 181.898H173.756L215.879 121.932L176.586 65.2344ZM269.475 71.4439V65.2336H355.45V71.4431H315.841V181.897H308.926V71.4439H269.475ZM0 65.2336H8.64453L127.848 249.935L78.5875 181.897L7.22969 74.0576L6.91563 181.899H0L0 65.2336ZM354.753 173.814C353.34 173.814 352.28 172.681 352.28 171.216C352.28 169.751 353.34 168.617 354.753 168.617C356.183 168.617 357.226 169.751 357.226 171.216C357.226 172.681 356.183 173.814 354.753 173.814ZM361.548 166.978H365.249C365.299 169.053 366.763 170.449 368.916 170.449C371.321 170.449 372.684 168.949 372.684 166.141V148.352H376.452V166.158C376.452 171.216 373.626 174.129 368.949 174.129C364.559 174.129 361.548 171.303 361.548 166.977V166.978ZM381.38 166.752H385.114C385.434 169.141 387.687 170.657 390.934 170.657C393.962 170.657 396.182 169.035 396.182 166.804C396.182 164.886 394.769 163.734 391.556 162.95L388.427 162.165C384.037 161.1 382.036 158.903 382.036 155.206C382.036 150.725 385.568 147.742 390.866 147.742C395.795 147.742 399.395 150.724 399.613 154.962H395.946C395.593 152.643 393.641 151.195 390.816 151.195C387.839 151.195 385.855 152.678 385.855 154.944C385.855 156.74 387.132 157.77 390.295 158.537L392.969 159.217C397.948 160.421 400 162.514 400 166.298C400 171.111 396.401 174.129 390.648 174.129C385.266 174.129 381.648 171.25 381.38 166.751V166.752Z" fill="black"/>
</g>
<defs>
<clipPath id="clip0_108_288">
<rect width="400" height="250" fill="white"/>
</clipPath>
</defs>
</svg>
