<svg width="400" height="250" viewBox="0 0 400 250" fill="none" xmlns="http://www.w3.org/2000/svg">
<path d="M197.742 249.279C196.388 249.279 195.124 248.911 193.95 248.267L181.943 240.998C180.137 239.985 181.04 239.617 181.582 239.433C184.019 238.605 184.471 238.42 186.999 236.949C187.27 236.764 187.632 236.857 187.902 237.041L197.111 242.654C197.472 242.838 197.923 242.838 198.193 242.654L234.216 221.397C234.577 221.213 234.758 220.845 234.758 220.385V177.965C234.758 177.504 234.577 177.137 234.216 176.952L198.193 155.788C197.832 155.604 197.381 155.604 197.111 155.788L161.088 176.952C160.727 177.136 160.546 177.596 160.546 177.964V220.385C160.546 220.753 160.727 221.213 161.088 221.397L170.929 227.194C176.256 229.955 179.596 226.734 179.596 223.514V181.645C179.596 181.093 180.047 180.541 180.679 180.541H185.283C185.825 180.541 186.367 181.001 186.367 181.645V223.514C186.367 230.783 182.485 235.016 175.714 235.016C173.637 235.016 172.012 235.016 167.408 232.715L157.928 227.194C155.581 225.815 154.137 223.237 154.137 220.477V178.057C154.137 175.296 155.581 172.719 157.928 171.339L193.95 150.083C196.208 148.795 199.278 148.795 201.534 150.083L237.556 171.339C239.903 172.719 241.349 175.296 241.349 178.057V220.477C241.349 223.237 239.903 225.815 237.556 227.194L201.534 248.451C200.36 249.003 199.006 249.279 197.742 249.279ZM208.847 220.109C193.048 220.109 189.798 212.748 189.798 206.49C189.798 205.938 190.249 205.386 190.881 205.386H195.576C196.117 205.386 196.569 205.754 196.569 206.307C197.291 211.183 199.367 213.576 208.937 213.576C216.521 213.576 219.772 211.827 219.772 207.686C219.772 205.294 218.868 203.546 207.041 202.35C197.201 201.337 191.062 199.129 191.062 191.123C191.062 183.67 197.201 179.252 207.493 179.252C219.048 179.252 224.737 183.302 225.459 192.135C225.459 192.412 225.369 192.687 225.188 192.963C225.007 193.147 224.737 193.331 224.466 193.331H219.771C219.319 193.331 218.868 192.963 218.778 192.503C217.695 187.443 214.896 185.786 207.493 185.786C199.187 185.786 198.193 188.731 198.193 190.939C198.193 193.608 199.367 194.436 210.562 195.908C221.667 197.381 226.904 199.497 226.904 207.41C226.813 215.508 220.313 220.109 208.847 220.109Z" fill="#539E43"/>
<path d="M85.9746 83.3694C85.9746 81.7133 85.0716 80.148 83.6272 79.32L45.3479 56.8678C44.7152 56.4992 43.9934 56.3152 43.2716 56.2229H42.91C42.1882 56.2229 41.4656 56.4992 40.8337 56.8678L2.55438 79.32C1.10926 80.148 0.207031 81.7125 0.207031 83.3694L0.297644 143.733C0.297644 144.561 0.749147 145.389 1.47093 145.758C2.19349 146.218 3.09571 146.218 3.72844 145.758L26.4793 132.507C27.9237 131.679 28.8267 130.115 28.8267 128.459V100.209C28.8267 98.5525 29.7289 96.988 31.174 96.16L40.8337 90.4546C41.5562 89.9944 42.3686 89.8097 43.181 89.8097C43.9934 89.8097 44.8058 89.9944 45.4385 90.4546L55.0982 96.16C56.5433 96.988 57.4455 98.5517 57.4455 100.209V128.459C57.4455 130.115 58.3485 131.679 59.7929 132.507L82.5438 145.758C83.2663 146.218 84.1686 146.218 84.8911 145.758C85.6137 145.389 86.0652 144.561 86.0652 143.733L85.9746 83.3694ZM269.968 0.276229C269.246 -0.0924018 268.343 -0.0924018 267.711 0.276229C266.989 0.73642 266.537 1.47209 266.537 2.30011V62.113C266.537 62.6648 266.267 63.2165 265.725 63.5851C265.184 63.8606 264.642 63.8606 264.1 63.5851L254.53 57.9721C253.829 57.5649 253.035 57.3508 252.228 57.3508C251.421 57.3508 250.627 57.5649 249.926 57.9721L211.646 80.5167C210.202 81.3447 209.299 82.9092 209.299 84.5652V129.562C209.299 131.218 210.202 132.783 211.646 133.611L249.926 156.156C250.627 156.563 251.421 156.777 252.228 156.777C253.035 156.777 253.829 156.563 254.53 156.156L292.81 133.611C294.254 132.783 295.157 131.219 295.157 129.562V17.3917C295.157 15.6433 294.254 14.0796 292.81 13.2508L269.968 0.276229ZM266.448 114.748C266.448 115.208 266.267 115.576 265.905 115.76L252.815 123.489C252.632 123.58 252.431 123.627 252.228 123.627C252.025 123.627 251.824 123.58 251.641 123.489L238.55 115.76C238.189 115.576 238.008 115.115 238.008 114.748V99.2882C238.008 98.828 238.189 98.4601 238.55 98.2762L251.641 90.5461C251.824 90.4552 252.025 90.408 252.228 90.408C252.431 90.408 252.632 90.4552 252.815 90.5461L265.905 98.2762C266.267 98.4593 266.448 98.9203 266.448 99.2882V114.748ZM397.355 98.9203C398.8 98.0923 399.613 96.5278 399.613 94.871V83.9211C399.613 82.2651 398.71 80.7006 397.355 79.8726L359.347 57.4203C358.645 57.0133 357.852 56.7993 357.045 56.7993C356.238 56.7993 355.444 57.0133 354.743 57.4203L316.464 79.9641C315.018 80.7922 314.116 82.3566 314.116 84.0135V129.01C314.116 130.666 315.018 132.231 316.464 133.059L354.472 155.143C355.917 155.971 357.632 155.971 358.986 155.143L382.007 142.078C382.73 141.709 383.181 140.881 383.181 140.053C383.181 139.225 382.73 138.397 382.007 138.029L343.547 115.484C342.826 115.025 342.374 114.288 342.374 113.46V99.3813C342.374 98.5533 342.826 97.7253 343.547 97.3566L355.555 90.363C355.907 90.1376 356.314 90.0179 356.729 90.0179C357.144 90.0179 357.551 90.1376 357.903 90.363L369.91 97.3566C370.632 97.8168 371.084 98.5525 371.084 99.3813V110.424C371.084 111.252 371.535 112.08 372.257 112.447C372.98 112.908 373.882 112.908 374.604 112.447L397.355 98.9203Z" fill="#333333"/>
<path d="M356.458 96.8041C356.592 96.7142 356.749 96.6663 356.909 96.6663C357.069 96.6663 357.226 96.7142 357.36 96.8041L364.673 101.129C364.944 101.312 365.125 101.588 365.125 101.957V110.607C365.125 110.974 364.944 111.251 364.673 111.435L357.36 115.759C357.226 115.849 357.069 115.897 356.909 115.897C356.749 115.897 356.592 115.849 356.458 115.759L349.145 111.435C348.874 111.251 348.693 110.974 348.693 110.607V101.957C348.693 101.588 348.874 101.312 349.145 101.129L356.458 96.8041Z" fill="#539E43"/>
<path d="M149.983 57.6042C149.282 57.1972 148.488 56.9832 147.681 56.9832C146.874 56.9832 146.081 57.1972 145.379 57.6042L107.371 79.9633C105.926 80.7913 105.113 82.3558 105.113 84.0118V128.826C105.113 130.482 106.016 132.046 107.371 132.874L145.379 155.235C146.081 155.642 146.874 155.856 147.681 155.856C148.488 155.856 149.282 155.642 149.983 155.235L187.992 132.874C189.436 132.046 190.25 130.482 190.25 128.826V84.0126C190.25 82.3566 189.346 80.7921 187.992 79.9641L149.983 57.6042Z" fill="url(#paint0_linear_108_311)"/>
<mask id="mask0_108_311" style="mask-type:luminance" maskUnits="userSpaceOnUse" x="105" y="56" width="86" height="100">
<path d="M149.983 57.6042C149.282 57.1972 148.488 56.9832 147.681 56.9832C146.874 56.9832 146.081 57.1972 145.379 57.6042L107.371 79.9633C105.926 80.7913 105.113 82.3558 105.113 84.0118V128.826C105.113 130.482 106.016 132.046 107.371 132.874L145.379 155.235C146.081 155.642 146.874 155.856 147.681 155.856C148.488 155.856 149.282 155.642 149.983 155.235L187.992 132.874C189.436 132.046 190.25 130.482 190.25 128.826V84.0126C190.25 82.3566 189.346 80.7921 187.992 79.9641L149.983 57.6042Z" fill="white"/>
</mask>
<g mask="url(#mask0_108_311)">
<path d="M188.082 79.9641L149.893 57.6042C149.518 57.4111 149.125 57.2569 148.719 57.144L105.926 131.864C106.28 132.305 106.708 132.679 107.19 132.968L145.379 155.329C146.463 155.973 147.726 156.157 148.9 155.788L189.076 80.8853C188.805 80.5174 188.443 80.2396 188.082 79.9641Z" fill="url(#paint1_linear_108_311)"/>
</g>
<mask id="mask1_108_311" style="mask-type:luminance" maskUnits="userSpaceOnUse" x="105" y="56" width="86" height="100">
<path d="M149.983 57.6042C149.282 57.1972 148.488 56.9832 147.681 56.9832C146.874 56.9832 146.081 57.1972 145.379 57.6042L107.371 79.9633C105.926 80.7913 105.113 82.3558 105.113 84.0118V128.826C105.113 130.482 106.016 132.046 107.371 132.874L145.379 155.235C146.081 155.642 146.874 155.856 147.681 155.856C148.488 155.856 149.282 155.642 149.983 155.235L187.992 132.874C189.436 132.046 190.25 130.482 190.25 128.826V84.0126C190.25 82.3566 189.346 80.7921 187.992 79.9641L149.983 57.6042Z" fill="white"/>
</mask>
<g mask="url(#mask1_108_311)">
<path fill-rule="evenodd" clip-rule="evenodd" d="M188.172 132.875C189.255 132.231 190.068 131.126 190.429 129.931L148.537 57.0515C147.454 56.8676 146.28 56.9592 145.288 57.6033L107.369 79.8724L148.266 155.88C148.861 155.78 149.439 155.594 149.981 155.328L188.171 132.876L188.172 132.875Z" fill="url(#paint2_linear_108_311)"/>
<path fill-rule="evenodd" clip-rule="evenodd" d="M188.172 132.875L150.073 155.235C149.535 155.515 148.955 155.701 148.357 155.787L149.08 157.168L191.331 132.231V131.679L190.248 129.838C190.068 131.126 189.255 132.231 188.172 132.875Z" fill="url(#paint3_linear_108_311)"/>
<path fill-rule="evenodd" clip-rule="evenodd" d="M188.172 132.875L150.073 155.235C149.535 155.515 148.955 155.701 148.357 155.787L149.08 157.168L191.331 132.231V131.679L190.248 129.838C190.068 131.126 189.255 132.231 188.172 132.875Z" fill="url(#paint4_linear_108_311)"/>
</g>
<defs>
<linearGradient id="paint0_linear_108_311" x1="5910.39" y1="1785.97" x2="1630.38" y2="8384.16" gradientUnits="userSpaceOnUse">
<stop stop-color="#41873F"/>
<stop offset="0.3288" stop-color="#418B3D"/>
<stop offset="0.6352" stop-color="#419637"/>
<stop offset="0.9319" stop-color="#3FA92D"/>
<stop offset="1" stop-color="#3FAE2A"/>
</linearGradient>
<linearGradient id="paint1_linear_108_311" x1="3704.4" y1="5509.61" x2="14227.8" y2="-99.8657" gradientUnits="userSpaceOnUse">
<stop offset="0.1376" stop-color="#41873F"/>
<stop offset="0.4032" stop-color="#54A044"/>
<stop offset="0.7136" stop-color="#66B848"/>
<stop offset="0.9081" stop-color="#6CC04A"/>
</linearGradient>
<linearGradient id="paint2_linear_108_311" x1="-257.182" y1="5002.26" x2="8537.89" y2="5002.26" gradientUnits="userSpaceOnUse">
<stop offset="0.09192" stop-color="#6CC04A"/>
<stop offset="0.2864" stop-color="#66B848"/>
<stop offset="0.5968" stop-color="#54A044"/>
<stop offset="0.8624" stop-color="#41873F"/>
</linearGradient>
<linearGradient id="paint3_linear_108_311" x1="-4314.96" y1="1503.83" x2="4480.01" y2="1503.83" gradientUnits="userSpaceOnUse">
<stop offset="0.09192" stop-color="#6CC04A"/>
<stop offset="0.2864" stop-color="#66B848"/>
<stop offset="0.5968" stop-color="#54A044"/>
<stop offset="0.8624" stop-color="#41873F"/>
</linearGradient>
<linearGradient id="paint4_linear_108_311" x1="5761.32" y1="-5638.6" x2="3449.79" y2="6245.08" gradientUnits="userSpaceOnUse">
<stop stop-color="#41873F"/>
<stop offset="0.3288" stop-color="#418B3D"/>
<stop offset="0.6352" stop-color="#419637"/>
<stop offset="0.9319" stop-color="#3FA92D"/>
<stop offset="1" stop-color="#3FAE2A"/>
</linearGradient>
</defs>
</svg>
