<svg width="300" height="250" viewBox="0 0 300 250" fill="none" xmlns="http://www.w3.org/2000/svg">
<path d="M300 125.029C300 106.432 275.112 88.8075 236.955 77.8782C245.76 41.4855 241.847 12.5315 224.603 3.26161C220.628 1.0872 215.98 0.0572205 210.905 0.0572205V12.8176C213.718 12.8176 215.98 13.3326 217.876 14.3053C226.192 18.7686 229.8 35.7633 226.987 57.6219C226.315 63.0007 225.214 68.6656 223.869 74.445C211.883 71.6983 198.797 69.5811 185.039 68.2078C176.784 57.6219 168.223 48.0087 159.6 39.5972C179.535 22.2591 198.247 12.7604 210.966 12.7604V0C194.15 0 172.136 11.2154 149.878 30.6706C127.619 11.3298 105.605 0.228886 88.7892 0.228886V12.9892C101.447 12.9892 120.22 22.4308 140.155 39.6544C131.594 48.0659 123.033 57.6219 114.9 68.2078C101.08 69.5811 87.9943 71.6983 76.009 74.5022C74.6025 68.78 73.563 63.2296 72.8292 57.908C69.9552 36.0494 73.5018 19.0547 81.757 14.5342C83.5915 13.5042 85.9764 13.0465 88.7892 13.0465V0.286107C83.6527 0.286107 79.0053 1.31609 74.9694 3.4905C57.7864 12.7604 53.934 41.6571 62.8007 77.9354C24.7656 88.9219 0 106.489 0 125.029C0 143.626 24.8879 161.25 63.0452 172.179C54.2397 208.572 58.1533 237.526 75.3975 246.796C79.3722 248.97 84.0196 250 89.1561 250C105.972 250 127.986 238.785 150.245 219.329C172.503 238.67 194.517 249.771 211.333 249.771C216.47 249.771 221.117 248.741 225.153 246.567C242.336 237.297 246.188 208.4 237.322 172.122C275.234 161.192 300 143.568 300 125.029ZM220.383 86.862C218.121 94.2435 215.308 101.854 212.128 109.464C209.621 104.887 206.991 100.309 204.117 95.7313C201.305 91.1536 198.308 86.6903 195.312 82.3415C203.995 83.5431 212.373 85.0309 220.383 86.862ZM192.377 147.803C187.607 155.528 182.715 162.852 177.64 169.661C168.528 170.405 159.295 170.806 150 170.806C140.766 170.806 131.533 170.405 122.483 169.718C117.407 162.909 112.454 155.642 107.684 147.974C103.037 140.478 98.8178 132.868 94.9654 125.2C98.7566 117.533 103.037 109.865 107.623 102.369C112.393 94.6441 117.285 87.3197 122.36 80.5104C131.472 79.7665 140.705 79.366 150 79.366C159.234 79.366 168.467 79.7665 177.517 80.4532C182.593 87.2625 187.546 94.5296 192.316 102.197C196.963 109.693 201.182 117.304 205.035 124.971C201.182 132.639 196.963 140.307 192.377 147.803ZM212.128 140.364C215.43 148.032 218.243 155.699 220.567 163.138C212.556 164.969 204.117 166.514 195.373 167.716C198.369 163.31 201.366 158.789 204.179 154.154C206.991 149.577 209.621 144.942 212.128 140.364ZM150.122 201.419C144.435 195.926 138.748 189.803 133.123 183.108C138.626 183.337 144.252 183.509 149.939 183.509C155.687 183.509 161.374 183.394 166.938 183.108C161.435 189.803 155.748 195.926 150.122 201.419ZM104.627 167.716C95.9437 166.514 87.5662 165.026 79.5556 163.195C81.8182 155.814 84.6311 148.203 87.8108 140.593C90.318 145.171 92.9474 149.748 95.8214 154.326C98.6955 158.904 101.631 163.367 104.627 167.716ZM149.817 48.6381C155.503 54.1314 161.19 60.2541 166.816 66.949C161.313 66.7201 155.687 66.5484 150 66.5484C144.252 66.5484 138.565 66.6628 133 66.949C138.504 60.2541 144.191 54.1314 149.817 48.6381ZM104.566 82.3415C101.57 86.7475 98.5732 91.268 95.7603 95.903C92.9474 100.481 90.318 105.058 87.8108 109.636C84.5088 101.968 81.6959 94.3008 79.3722 86.862C87.3828 85.0881 95.8215 83.5431 104.566 82.3415ZM49.2254 153.983C27.5785 145.342 13.5752 134.012 13.5752 125.029C13.5752 116.045 27.5785 104.658 49.2254 96.0746C54.4843 93.9574 60.2324 92.0691 66.1639 90.2953C69.6494 101.511 74.2356 113.184 79.9225 125.143C74.2968 137.045 69.7717 148.661 66.3473 159.819C60.2935 158.045 54.5455 156.1 49.2254 153.983ZM82.1239 235.752C73.8076 231.289 70.1998 214.294 73.0126 192.435C73.6853 187.057 74.786 181.392 76.1313 175.612C88.1166 178.359 101.203 180.476 114.961 181.849C123.216 192.435 131.777 202.049 140.4 210.46C120.465 227.798 101.753 237.297 89.0338 237.297C86.2821 237.24 83.9584 236.725 82.1239 235.752ZM227.171 192.149C230.045 214.008 226.498 231.003 218.243 235.523C216.408 236.553 214.024 237.011 211.211 237.011C198.553 237.011 179.78 227.569 159.845 210.346C168.406 201.934 176.967 192.378 185.1 181.792C198.92 180.419 212.006 178.302 223.991 175.498C225.397 181.277 226.498 186.828 227.171 192.149ZM250.713 153.983C245.455 156.1 239.706 157.988 233.775 159.762C230.289 148.547 225.703 136.873 220.016 124.914C225.642 113.012 230.167 101.396 233.592 90.238C239.645 92.0119 245.393 93.9574 250.775 96.0746C272.422 104.715 286.425 116.045 286.425 125.029C286.364 134.012 272.36 145.399 250.713 153.983Z" fill="#61DAFB"/>
<path d="M149.94 151.179C165.373 151.179 177.885 139.471 177.885 125.029C177.885 110.586 165.373 98.8784 149.94 98.8784C134.506 98.8784 121.994 110.586 121.994 125.029C121.994 139.471 134.506 151.179 149.94 151.179Z" fill="#61DAFB"/>
</svg>
