<svg width="250" height="200" viewBox="0 0 250 200" fill="none" xmlns="http://www.w3.org/2000/svg">
<path d="M215.137 114.896C206.396 114.948 198.828 117.187 192.48 120.521C190.137 115.573 187.793 111.25 187.403 108.021C186.963 104.271 186.426 101.979 186.963 97.5004C187.5 93.0208 189.941 86.6666 189.941 86.1458C189.892 85.677 189.404 83.3853 184.375 83.3333C179.346 83.2812 175 84.3749 174.512 85.7812C174.023 87.1874 173.047 90.4166 172.412 93.7499C171.533 98.6458 162.353 115.99 157.129 125.104C155.42 121.562 153.955 118.437 153.661 115.937C153.223 112.187 152.685 109.895 153.222 105.417C153.76 100.937 156.201 94.5833 156.201 94.0624C156.152 93.5937 155.664 91.302 150.635 91.2499C145.605 91.1978 141.26 92.2916 140.772 93.6978C140.284 95.1041 139.746 98.4374 138.672 101.667C137.646 104.896 125.439 133.854 122.265 141.406C120.654 145.26 119.239 148.333 118.213 150.417C117.187 152.5 118.164 150.573 118.066 150.781C117.187 152.552 116.699 153.542 116.699 153.542V153.594C116.015 154.896 115.283 156.146 114.941 156.146C114.697 156.146 114.208 152.656 115.038 147.865C116.845 137.812 121.24 122.136 121.191 121.563C121.191 121.303 122.021 118.542 118.359 117.136C114.794 115.73 113.525 118.073 113.232 118.073C112.939 118.073 112.695 118.907 112.695 118.907C112.695 118.907 116.65 101.251 105.126 101.251C97.8997 101.251 87.9388 109.636 83.0072 117.293C79.8822 119.116 73.2415 122.969 66.2103 127.084C63.5247 128.647 60.7415 130.313 58.1048 131.824L57.5682 131.198C43.6034 115.312 17.7733 104.062 18.8475 82.7083C19.2381 74.9478 21.7772 54.4791 68.4574 29.6874C106.69 9.37493 137.305 14.9478 142.627 27.3437C150.195 45.052 126.269 77.9687 86.5238 82.7083C71.387 84.5312 63.4276 78.2812 61.4261 75.9374C59.3265 73.4895 59.0335 73.3853 58.2523 73.8541C56.9827 74.5833 57.764 76.7708 58.2523 78.0728C59.4242 81.3541 64.307 87.1874 72.6078 90.1041C79.8827 92.6562 97.6566 94.0624 119.141 85.2083C143.213 75.2603 162.012 47.6562 156.494 24.5833C150.879 1.09368 114.356 -6.61466 79.8343 6.45826C59.2772 14.2708 37.0116 26.4583 20.9959 42.4478C1.95296 61.4062 -1.07438 77.9687 0.195149 84.8437C4.639 109.375 36.328 125.365 49.0233 137.187C48.3885 137.551 47.8026 137.916 47.2655 138.229C40.9178 141.562 16.7479 155.052 10.6932 169.322C3.85726 185.468 11.7674 197.083 17.0409 198.646C33.3494 203.49 50.0487 194.792 59.0819 180.469C68.0658 166.146 66.992 147.552 62.8416 139.062L62.6947 138.75L67.6751 135.625C70.8983 133.594 74.0721 131.719 76.8548 130.104C75.2928 134.635 74.1693 139.999 73.5838 147.812C72.9002 156.979 76.4159 168.854 81.0545 173.541C83.1053 175.572 85.5467 175.624 87.0604 175.624C92.4315 175.624 94.8729 170.884 97.5584 165.208C100.879 158.281 103.808 150.26 103.808 150.26C103.808 150.26 100.146 171.979 110.156 171.979C113.818 171.979 117.48 166.926 119.14 164.322V164.374C119.14 164.374 119.238 164.218 119.433 163.854C119.638 163.53 119.834 163.201 120.019 162.865V162.76C121.484 160.052 124.756 153.854 129.639 143.594C135.937 130.365 141.992 113.802 141.992 113.802C141.992 113.802 142.578 117.865 144.385 124.531C145.458 128.49 147.802 132.812 149.609 137.031C148.144 139.219 147.265 140.469 147.265 140.469L147.314 140.521C146.142 142.188 144.824 143.959 143.457 145.73C138.476 152.084 132.519 159.324 131.738 161.407C130.81 163.855 131.006 165.678 132.812 167.136C134.131 168.178 136.474 168.386 138.965 168.178C143.457 167.865 146.582 166.668 148.144 165.938C150.586 165 153.369 163.594 156.055 161.511C160.937 157.657 163.916 152.188 163.623 144.897C163.476 140.886 162.256 136.928 160.742 133.178C161.181 132.501 161.621 131.823 162.06 131.095C169.775 119.063 175.732 105.834 175.732 105.834C175.732 105.834 176.318 109.897 178.125 116.563C179.052 119.949 180.908 123.647 182.568 127.293C175.342 133.595 170.801 140.887 169.238 145.679C166.357 154.533 168.603 158.543 172.851 159.481C174.755 159.897 177.49 158.96 179.54 158.022C182.079 157.137 185.156 155.626 187.988 153.387C192.871 149.533 197.558 144.168 197.314 136.929C197.168 133.595 196.338 130.314 195.215 127.189C201.367 124.481 209.326 122.918 219.433 124.22C241.162 126.929 245.459 141.408 244.629 147.449C243.799 153.492 239.258 156.824 237.744 157.866C236.23 158.856 235.742 159.221 235.889 159.949C236.084 161.044 236.767 160.991 238.086 160.783C239.892 160.47 249.512 155.835 249.902 144.69C250.488 130.365 237.744 114.74 215.137 114.896ZM47.5584 175.156C40.3807 183.542 30.2733 186.719 25.9764 184.01C21.3377 181.146 23.1439 168.802 31.9823 159.896C37.3534 154.479 44.3358 149.479 48.9256 146.406C49.951 145.729 51.5135 144.74 53.369 143.542C53.6619 143.334 53.8573 143.229 53.8573 143.229C54.1991 143.021 54.5897 142.76 54.9803 142.5C58.2518 155.208 55.1268 166.354 47.5584 175.156ZM100.049 137.083C97.5584 143.594 92.285 160.312 89.1112 159.375C86.3763 158.594 84.7166 145.937 88.5736 133.437C90.5267 127.135 94.6771 119.635 97.1185 116.718C101.074 112.031 105.37 110.468 106.445 112.395C107.715 114.896 101.611 133.021 100.049 137.083ZM143.359 159.167C142.285 159.74 141.308 160.156 140.869 159.844C140.527 159.636 141.308 158.855 141.308 158.855C141.308 158.855 146.728 152.657 148.876 149.792C150.097 148.126 151.562 146.199 153.124 144.011V144.636C153.125 152.135 146.387 157.135 143.359 159.167ZM176.757 151.042C175.976 150.417 176.074 148.49 178.71 142.448C179.736 140.052 182.079 136.042 186.132 132.239C186.62 133.802 186.914 135.312 186.865 136.719C186.816 146.094 180.566 149.583 176.757 151.042Z" fill="#CF649A"/>
</svg>
