<svg width="250" height="250" viewBox="0 0 250 250" fill="none" xmlns="http://www.w3.org/2000/svg">
<g clip-path="url(#clip0_108_364)">
<path fill-rule="evenodd" clip-rule="evenodd" d="M34.8152 180.358C31.3341 180.358 29.0416 182.226 29.0416 184.717C29.0416 186.924 30.4001 188.396 33.485 189.245C36.2869 190.038 36.8812 190.434 36.8812 191.679C36.8812 192.811 35.8341 193.491 34.2209 193.491C32.6925 193.491 31.3058 192.896 30.1454 192.019L28.3341 194.057C29.7209 195.302 31.7303 196.179 34.3058 196.179C37.7303 196.179 40.6171 194.538 40.6171 191.424C40.6171 188.764 38.8907 187.519 35.8341 186.698C33.2869 185.991 32.6925 185.538 32.6925 184.547C32.6925 183.641 33.5133 183.047 34.9567 183.047C36.2869 183.047 37.4756 183.472 38.7209 184.264L40.1359 182.141C38.7208 181.038 36.9661 180.358 34.8152 180.358ZM50.8624 192.726L52.1359 195.047C51.0605 195.811 49.702 196.179 48.3718 196.179C45.4284 196.151 43.8718 194.481 43.8718 191.283V183.387H41.5227V180.783H43.8718V177.472L47.4944 177.047V180.783H50.9756L50.6076 183.387H47.4944V191.198C47.4944 192.67 47.9756 193.264 49.0793 193.264C49.6454 193.264 50.2114 193.094 50.8624 192.726ZM66.2869 180.783L61.419 195.811C60.2869 199.321 58.0793 201.585 53.6359 201.924L53.268 199.292C56.2397 198.84 57.202 197.877 58.051 195.755H56.8058L52.051 180.783H55.9001L59.1548 193.349L62.551 180.783H66.2869ZM72.0322 196.179C72.8608 196.179 73.6803 196.006 74.4378 195.67L73.6737 193.123C73.419 193.207 73.1643 193.264 72.8246 193.264C72.2303 193.264 71.9756 192.924 71.9756 192.217V174.387L68.3529 174.783V192.33C68.3529 194.792 69.7397 196.179 72.0322 196.179ZM89.1265 187.915C89.1265 188.396 89.0699 188.991 89.0416 189.387H79.6454C79.9001 192.443 81.3435 193.434 83.3246 193.434C84.6548 193.434 85.7586 193.009 87.0605 192.104L88.5605 194.17C87.0888 195.358 85.2775 196.179 83.0133 196.179C78.3718 196.179 75.8812 193.094 75.8812 188.368C75.8812 183.811 78.2869 180.358 82.5322 180.358C86.7209 180.358 89.1265 183.189 89.1265 187.915ZM85.5322 187.038V186.868C85.5322 184.406 84.6548 182.934 82.6171 182.934C80.919 182.934 79.8435 184.066 79.6454 187.038H85.5322ZM101.353 174.387L104.976 174.783V195.755H101.777L101.523 193.858C100.617 195.217 99.1737 196.179 97.2492 196.179C93.5133 196.179 91.5605 193.038 91.5605 188.283C91.5605 183.67 93.8812 180.358 97.5888 180.358C99.1737 180.358 100.419 181.038 101.353 181.972V174.387ZM98.268 193.434C99.5982 193.434 100.504 192.783 101.353 191.509V184.66C100.56 183.698 99.7114 183.075 98.4944 183.075C96.6265 183.075 95.3812 184.66 95.3812 188.255C95.3812 192.104 96.485 193.434 98.268 193.434ZM34.9378 208.66C30.6359 208.66 27.9473 211.915 27.9473 216.698C27.9473 221.481 30.6359 224.481 34.9661 224.481C36.8907 224.481 38.4473 223.858 39.8058 222.755L38.1926 220.462C37.0888 221.17 36.2963 221.538 35.1642 221.538C33.1265 221.538 31.7963 220.264 31.7963 216.641C31.7963 213.047 33.0699 211.519 35.1642 211.519C36.2963 211.519 37.202 211.858 38.1926 212.594L39.8058 210.415C38.3907 209.198 36.8907 208.66 34.9378 208.66ZM48.551 208.66C52.9661 208.66 55.5699 211.66 55.5699 216.557C55.5699 221.283 52.9378 224.481 48.5227 224.481C44.1076 224.481 41.4756 221.481 41.4756 216.557C41.4756 211.858 44.1076 208.66 48.551 208.66ZM48.551 211.406C46.4284 211.406 45.2963 213.019 45.2963 216.557C45.2963 220.151 46.4001 221.736 48.5227 221.736C50.6454 221.736 51.7492 220.123 51.7492 216.557C51.7492 212.991 50.6454 211.406 48.551 211.406ZM74.8435 208.66C72.8624 208.66 71.4756 209.623 70.3435 211.179C69.7775 209.594 68.4756 208.66 66.7208 208.66C64.8246 208.66 63.4661 209.538 62.3907 211.038L62.1076 209.085H58.9661V224.057H62.5888V213.641C63.4095 212.255 64.1737 211.377 65.4473 211.377C66.3246 211.377 67.0888 211.915 67.0888 213.783V224.057H70.7114V213.641C71.5322 212.255 72.2963 211.377 73.5416 211.377C74.4473 211.377 75.1831 211.915 75.1831 213.783V224.057H78.8058V213.217C78.8058 210.387 77.2209 208.66 74.8435 208.66ZM90.7775 208.66C94.6831 208.66 96.3246 211.745 96.3246 216.528C96.3246 221.113 94.202 224.481 90.4095 224.481C88.8812 224.481 87.5793 223.943 86.6454 222.84V229.83L83.0227 230.226V209.085H86.1926L86.3907 210.924C87.5793 209.368 89.1642 208.66 90.7775 208.66ZM89.3907 221.707C91.3718 221.707 92.5322 220.179 92.5322 216.557C92.5322 212.764 91.5133 211.377 89.702 211.377C88.4284 211.377 87.3529 212.255 86.6454 213.415V220.151C87.3529 221.198 88.2586 221.707 89.3907 221.707ZM106.004 208.66C110.419 208.66 113.023 211.66 113.023 216.557C113.023 221.283 110.391 224.481 105.976 224.481C101.56 224.481 98.9284 221.481 98.9284 216.557C98.9284 211.858 101.56 208.66 106.004 208.66ZM106.004 211.406C103.881 211.406 102.749 213.019 102.749 216.557C102.749 220.151 103.853 221.736 105.976 221.736C108.098 221.736 109.202 220.123 109.202 216.557C109.202 212.991 108.098 211.406 106.004 211.406ZM124.4 208.66C122.504 208.66 121.004 209.538 119.843 211.038L119.56 209.085H116.419V224.057H120.042V213.641C120.919 212.255 121.881 211.377 123.183 211.377C124.315 211.377 125.023 211.915 125.023 213.783V224.057H128.645V213.217C128.645 210.358 127.089 208.66 124.4 208.66ZM145.145 216.217C145.145 216.698 145.089 217.292 145.06 217.689H135.664C135.919 220.745 137.362 221.736 139.343 221.736C140.674 221.736 141.777 221.311 143.079 220.406L144.579 222.472C143.108 223.66 141.296 224.481 139.032 224.481C134.391 224.481 131.9 221.396 131.9 216.67C131.9 212.113 134.306 208.66 138.551 208.66C142.74 208.66 145.145 211.491 145.145 216.217ZM141.551 215.34V215.17C141.551 212.708 140.674 211.236 138.636 211.236C136.938 211.236 135.862 212.368 135.664 215.34H141.551ZM156.381 208.66C154.485 208.66 152.985 209.538 151.825 211.038L151.542 209.085H148.4V224.057H152.023V213.641C152.9 212.255 153.862 211.377 155.164 211.377C156.296 211.377 157.004 211.915 157.004 213.783V224.057H160.627V213.217C160.627 210.358 159.07 208.66 156.381 208.66ZM172.145 221.028C171.494 221.396 170.928 221.566 170.362 221.566C169.259 221.566 168.777 220.972 168.777 219.5V211.689H171.891L172.259 209.085H168.777V205.349L165.155 205.774V209.085H162.806V211.689H165.155V219.585C165.155 222.783 166.711 224.453 169.655 224.481C170.985 224.481 172.343 224.113 173.419 223.349L172.145 221.028ZM180.183 208.66C176.702 208.66 174.41 210.528 174.41 213.019C174.41 215.226 175.768 216.698 178.853 217.547C181.655 218.34 182.249 218.736 182.249 219.981C182.249 221.113 181.202 221.792 179.589 221.792C178.06 221.792 176.674 221.198 175.513 220.321L173.702 222.358C175.089 223.604 177.098 224.481 179.674 224.481C183.098 224.481 185.985 222.84 185.985 219.726C185.985 217.066 184.259 215.821 181.202 215C178.655 214.292 178.06 213.84 178.06 212.849C178.06 211.943 178.881 211.349 180.325 211.349C181.655 211.349 182.844 211.774 184.089 212.566L185.504 210.443C184.089 209.34 182.334 208.66 180.183 208.66ZM62.7366 68.5534L34.2775 86.2421L62.7366 104.245L59.8278 107.862L30.1894 89.3081V83.0974L60.1422 64.544M208.963 82.3899V88.522L179.325 107.075L176.416 103.223L204.796 85.4559L176.416 67.61L178.932 63.7578" fill="#4A4A4A"/>
<path d="M93 109.071H157V45.0708H93V109.071Z" fill="black"/>
</g>
<defs>
<clipPath id="clip0_108_364">
<rect width="250" height="250" fill="white"/>
</clipPath>
</defs>
</svg>
