<svg width="400" height="250" viewBox="0 0 400 250" fill="none" xmlns="http://www.w3.org/2000/svg">
<g clip-path="url(#clip0_108_361)">
<path d="M200.001 0C146.687 0 113.368 27.7784 100.038 83.3299C120.033 55.5515 143.357 45.1385 170.012 52.0805C185.221 56.0414 196.091 67.5436 208.126 80.2706C227.725 101.003 250.41 124.997 299.964 124.997C353.273 124.997 386.597 97.219 399.922 41.6623C379.932 69.4407 356.608 79.8589 329.948 72.9169C314.744 68.956 303.874 57.4538 291.839 44.7268C272.239 23.9947 249.55 0 200.001 0ZM100.038 124.997C46.7291 124.997 13.4048 152.776 0.0800781 208.332C20.0697 180.554 43.3942 170.136 70.0536 177.083C85.2583 181.049 96.1281 192.546 108.163 205.268C127.762 226 150.452 250 200.001 250C253.315 250 286.634 222.222 299.964 166.665C279.969 194.443 256.645 204.861 229.99 197.914C214.781 193.959 203.911 182.451 191.876 169.729C172.276 148.997 149.592 124.997 100.038 124.997Z" fill="#06B6D4"/>
</g>
<defs>
<clipPath id="clip0_108_361">
<rect width="400" height="250" fill="white"/>
</clipPath>
</defs>
</svg>
