<svg width="300" height="250" viewBox="0 0 300 250" fill="none" xmlns="http://www.w3.org/2000/svg">
<path d="M27.8534 0H272.023C287.477 0 299.985 17.4428 299.985 38.9918V168.961C299.985 190.51 287.477 207.953 272.023 207.953H184.461L196.48 248.995L143.623 207.953H27.9752C12.5232 207.953 0.0145719 190.51 0.0145719 168.961V38.9918C-0.108463 17.6144 12.399 0 27.8534 0Z" fill="#9B5C8F"/>
<path d="M17.0967 35.5393C18.8039 32.3073 21.3643 30.6079 24.7788 30.2681C30.9985 29.5867 34.5349 33.6667 35.3879 42.5099C39.168 78.0491 43.3137 108.147 47.7032 132.802L74.4077 61.8955C76.8473 55.4331 79.8962 52.0328 83.5545 51.6929C88.92 51.1831 92.2115 55.9429 93.5532 65.9756C96.6021 88.5899 100.504 107.806 105.137 124.129C108.308 80.9396 113.674 49.822 121.234 30.6079C123.062 25.8465 125.745 23.4658 129.281 23.1243C132.087 22.786 134.647 23.9756 136.964 26.5262C139.28 29.0769 140.5 32.3073 140.744 36.219C140.866 39.2795 140.5 41.8301 139.525 44.3808C134.769 56.6243 130.866 77.1994 127.696 105.765C124.648 133.482 123.55 155.078 124.282 170.552C124.526 174.801 124.038 178.543 122.819 181.775C121.354 185.515 119.161 187.556 116.356 187.895C113.185 188.235 109.893 186.196 106.723 181.605C95.3823 165.449 86.3585 141.304 79.7744 109.167C71.8474 130.931 65.9944 147.255 62.2143 158.137C55.0197 177.353 48.923 187.216 43.8012 187.726C40.5085 188.065 37.7045 184.154 35.2661 175.994C29.0475 153.717 22.3403 110.696 15.1469 46.9314C14.6582 42.5099 15.3894 38.5981 17.0967 35.5393ZM279.145 62.2354C274.756 51.523 268.293 45.0622 259.636 42.5099C257.318 41.8301 255.124 41.4903 253.05 41.4903C241.344 41.4903 231.833 49.9919 224.395 66.9968C218.053 81.4494 214.884 97.4331 214.884 114.948C214.884 128.041 216.835 139.263 220.736 148.616C225.126 159.329 231.589 165.789 240.246 168.34C242.563 169.021 244.758 169.361 246.832 169.361C258.659 169.361 268.171 160.86 275.487 143.855C281.828 129.23 284.998 113.247 284.998 95.7337C285.12 82.4707 283.047 71.4167 279.145 62.2354ZM263.781 109.337C262.074 120.559 259.025 128.891 254.513 134.502C250.977 138.923 247.685 140.793 244.637 139.943C241.71 139.093 239.27 135.523 237.442 128.891C235.978 123.619 235.248 118.348 235.248 113.417C235.248 109.167 235.491 104.915 236.101 101.005C237.199 94.0328 239.271 87.2305 242.563 80.7697C246.588 72.4364 250.856 69.0377 255.245 70.2272C258.172 71.0769 260.612 74.6488 262.44 81.2795C263.903 86.5507 264.634 91.822 264.634 96.7533C264.634 101.175 264.391 105.427 263.781 109.337ZM202.811 62.2354C198.421 51.523 191.836 45.0622 183.301 42.5099C180.984 41.8301 178.79 41.4903 176.716 41.4903C165.01 41.4903 155.499 49.9919 148.06 66.9968C141.72 81.4494 138.549 97.4331 138.549 114.948C138.549 128.041 140.5 139.263 144.402 148.616C148.791 159.329 155.255 165.789 163.912 168.34C166.23 169.021 168.423 169.361 170.497 169.361C182.325 169.361 191.836 160.86 199.153 143.855C205.494 129.23 208.664 113.247 208.664 95.7337C208.664 82.4707 206.713 71.4167 202.811 62.2354ZM187.325 109.337C185.618 120.559 182.569 128.891 178.057 134.502C174.521 138.923 171.228 140.793 168.179 139.943C165.253 139.093 162.815 135.523 160.985 128.891C159.522 123.619 158.791 118.348 158.791 113.417C158.791 109.167 159.035 104.915 159.644 101.005C160.742 94.0328 162.815 87.2305 166.108 80.7697C170.132 72.4364 174.399 69.0377 178.788 70.2272C181.716 71.0769 184.155 74.6488 185.983 81.2795C187.448 86.5507 188.178 91.822 188.178 96.7533C188.301 101.175 187.934 105.427 187.325 109.337Z" fill="white"/>
</svg>
