<svg width="250" height="250" viewBox="0 0 250 250" fill="none" xmlns="http://www.w3.org/2000/svg">
<path d="M125.002 250C55.7304 250 -0.518843 194.79 0.00361027 125C0.526064 55.21 53.1279 0 125.002 0C196.881 0 250 56.25 250 125C250 193.75 194.273 250 125.002 250ZM161.979 230.728L126.564 135.415L93.2298 232.813C117.712 238.545 134.377 240.103 161.979 230.728ZM75.525 225.523L22.4008 80.21C15.1059 95.835 13.5483 108.857 12.5034 125C13.0259 167.705 36.9806 206.768 75.525 225.523ZM236.983 125C237.5 97.3975 225.005 75.5225 223.96 72.3975C225.005 93.7549 221.875 104.688 218.233 116.67L181.773 221.357C227.608 193.75 236.455 152.603 237.5 125H236.983ZM121.359 120.313L103.65 71.875L90.6273 70.835C85.4223 67.1875 88.5424 61.46 92.1898 61.46C115.627 63.0225 128.644 63.0225 152.086 61.46C157.819 61.46 159.376 69.7949 152.604 70.835L140.104 71.875L180.724 191.665L199.991 126.04C201.036 97.3975 193.219 94.2725 182.804 73.4375C174.469 57.29 183.326 41.665 199.473 41.1475C186.446 28.6475 159.889 13.0225 124.992 12.5C90.0951 11.9775 53.1181 29.6875 31.2434 63.0225L69.7878 61.9824C74.4752 64.0674 72.3903 70.835 69.7878 71.3574L56.2479 72.3975L96.8723 194.272L121.359 120.313Z" fill="#21759B"/>
</svg>
